<?xml version="1.0" encoding="UTF-8"?>
<svg version="1.1" viewBox="0 0 1600 1600" width="1280" height="1280" xmlns="http://www.w3.org/2000/svg">
<path transform="translate(0)" d="m0 0h1600v1600h-1600v-1600z" fill="#FCFCFC"/>
<path transform="translate(941 226)" d="m0 0c2.24 1.13 4.5 2.21 6.76 3.3 22.9 11.1 42.9 25.1 61.7 42.4 2.15 1.97 4.33 3.88 6.55 5.77 8.89 7.76 16.8 16.3 24 25.6 0.705 0.9 1.41 1.8 2.14 2.73 29.7 38.7 46.4 80.5 55.9 128 3.16 0.904 6.14 1.21 9.42 1.39 53.4 3.28 103 18.6 143 55.5 2.11 1.94 4.27 3.8 6.46 5.65 3.3 2.88 6.16 5.96 8.98 9.3 1.25 1.45 2.53 2.87 3.84 4.27 39.8 42.2 55.3 101 54.1 157-1.1 30.1-9.29 58.5-22.1 85.6-0.486 1.03-0.972 2.05-1.47 3.11-4.93 10.1-10.9 19.4-17.8 28.3l-1.56 2.06c-0.975 1.29-1.95 2.57-2.94 3.85-1.03 1.35-2.01 2.74-2.99 4.13-0.418 0.504-0.835 1.01-1.27 1.53h-2c-0.246 0.57-0.492 1.14-0.745 1.73-2.56 4.63-6.78 8.13-10.5 11.8-0.905 0.9-1.81 1.8-2.74 2.73-6.96 6.84-14.1 13.1-22 18.7-0.548 0.398-1.1 0.795-1.66 1.21-28.1 20.3-59.5 32.2-93.3 38.8-0.708 0.165-1.42 0.33-2.14 0.499-3.76 0.66-7.52 0.866-11.3 1.05-0.834 0.0421-1.67 0.0842-2.53 0.128-9.82 0.456-19.6 0.467-29.5 0.464-2.08 3e-3 -4.15 0.00641-6.23 0.0102-5.57 0.00874-11.1 0.0112-16.7 0.0118-3.49 7.15e-4 -6.97 0.00286-10.5 0.0055-12.2 0.00921-24.3 0.0133-36.5 0.0125-11.3-6.04e-4 -22.7 0.01-34 0.0257-9.75 0.0131-19.5 0.0184-29.3 0.0178-5.82-2.55e-4 -11.6 0.0026-17.5 0.0132-5.45 0.00965-10.9 0.00978-16.4 0.00248-2-0.00105-4.01 0.00133-6.01 0.00736-2.73 0.00768-5.46 0.0031-8.18-0.00463-0.796 0.00514-1.59 0.0103-2.41 0.0156-3.79-0.0239-6.73-0.12-9.95-2.26-0.749-24.8-1.12-49.5-1.28-74.3-0.00706-1.07-0.00706-1.07-0.0143-2.17-0.0586-8.99-0.112-18-0.164-27-0.082-14.2-0.176-28.3-0.271-42.5-0.0104-1.55-0.0208-3.11-0.0312-4.66-0.165-24.8-0.402-49.5-0.768-74.3-0.585-39.8-0.585-39.8-0.647-57.5-0.0073-1.85-0.0178-3.71-0.032-5.56-0.127-17.5-0.127-17.5 2.21-24.1 3.67-2.91 8.4-2.27 12.9-2.23 1.28 6.87e-4 1.28 6.87e-4 2.59 0.00139 1.8 0.00302 3.61 0.0109 5.41 0.0233 2.77 0.0183 5.53 0.0205 8.3 0.0203 1.75 0.00491 3.51 0.0107 5.26 0.0176 1.25 0.00167 1.25 0.00167 2.52 0.00337 5.84 0.0485 5.84 0.0485 8.07 1.16-1.37 7.88-2.96 15.7-4.63 23.5-0.446 2.09-0.889 4.18-1.33 6.27-1.59 7.51-3.21 15-4.87 22.5-0.836 3.78-1.66 7.57-2.49 11.4-0.406 1.84-0.815 3.69-1.23 5.53-4.56 17.3-4.56 17.3-0.00974 33.9 0.729 1.28 1.46 2.55 2.18 3.83 0.385 0.661 0.771 1.32 1.17 2 2.16 3.76 4.18 7.59 6.21 11.4 0.398 0.735 0.795 1.47 1.2 2.23 2.8 5.23 2.8 5.23 2.8 7.46 1.32 0.33 2.64 0.66 4 1 4.45-7.64 8.76-15.3 12.6-23.3 1.64-3.24 3.51-6.29 5.5-9.32 3.3-9.06-0.69-20-2.68-29.1-0.363-1.69-0.726-3.38-1.09-5.07-2.6-12.1-5.29-24.1-8.09-36.2-4.76-20.6-4.76-20.6-4.26-27.1 2.54-2.54 4.13-2.24 7.59-2.25 1.14 0.0108 1.14 0.0108 2.31 0.0218 1.18 6.87e-4 1.18 6.87e-4 2.38 0.00139 1.66 0.00302 3.32 0.0109 4.99 0.0233 2.53 0.0182 5.07 0.0205 7.6 0.0203 1.62 0.00492 3.23 0.0107 4.85 0.0176 1.13 0.00167 1.13 0.00167 2.29 0.00337 7.59 0.0678 7.59 0.0678 11 1.16 2.62 3.93 2.29 7.27 2.27 11.8 0.00509 0.914 0.0102 1.83 0.0154 2.77 0.0147 3.08 0.0152 6.15 0.0158 9.23 0.00766 2.2 0.0162 4.4 0.0256 6.6 0.0183 4.75 0.0303 9.5 0.0375 14.3 0.0115 7.54 0.037 15.1 0.0643 22.6 0.037 10.6 0.0677 21.2 0.0928 31.8 0.0016 0.673 0.00319 1.35 0.00484 2.04 0.0016 0.674 0.0032 1.35 0.00485 2.04 0.0226 9.49 0.0472 19 0.0743 28.5 0.0019 0.664 0.00379 1.33 0.00575 2.01 0.032 11.2 0.0678 22.3 0.105 33.5 0.0247 7.47 0.0441 14.9 0.0595 22.4 0.0509 34.7 0.0509 34.7 1.22 69.5 13.1 0.0468 26.2 0.0821 39.2 0.104 6.08 0.0103 12.2 0.0243 18.2 0.0473 57.9 0.213 116 0.203 161-42.3 1.95-1.94 3.87-3.92 5.78-5.9 1.19-1.17 1.19-1.17 2.4-2.36 8.63-8.75 15.4-18 21.6-28.6 0.781-1.24 0.781-1.24 1.58-2.51 8.6-13.7 13.5-27.9 17.4-43.5 0.267-0.988 0.534-1.98 0.809-2.99 2.18-8.54 2.79-16.8 3-25.6 0.0506-1.33 0.102-2.67 0.154-4 0.237-8.1-0.402-15.5-1.97-23.4-0.237-1.58-0.463-3.15-0.676-4.73-1.52-10.8-3.87-21-7.32-31.3-0.345-1.06-0.691-2.12-1.05-3.21-9.75-27.5-27.7-52.2-51-69.8-0.835-0.651-1.67-1.3-2.53-1.97-20.4-15.4-45.2-27.4-70.7-30.7-2.77-0.359-2.77-0.359-5.32-0.906-3.32-0.614-6.49-0.476-9.85-0.391-2.6-0.0625-2.6-0.0625-5.29-0.555-4.47-0.686-8.86-0.653-13.4-0.633-0.885-0.00387-1.77-0.00773-2.68-0.0117-4.23 0.00635-8.12 0.138-12.3 1.14-1.26 0.103-2.52 0.206-3.81 0.312-11.9 1.27-23.7 5.32-35.2 8.69-1.56-3.12-1.16-6.43-1.18-9.86-0.0198-1.66-0.0408-3.31-0.063-4.97-0.0111-0.874-0.0223-1.75-0.0338-2.65-0.408-27.7-3.15-54-11.7-80.5-0.306-0.981-0.612-1.96-0.927-2.97-2.25-7.05-5.02-13.7-8.26-20.3-0.483-0.998-0.965-2-1.46-3.02-10.4-21.1-23.8-40.9-40.9-57.1-1.19-1.15-2.33-2.34-3.46-3.54v-2c-0.581-0.259-1.16-0.518-1.76-0.785-2.41-1.31-4.06-2.77-6.05-4.65-9.52-8.61-20.2-16-31.3-22.5-1.35-0.784-2.7-1.58-4.04-2.38-21.7-12.8-45.8-21.5-70.8-24.7-2.33-0.348-4.67-0.702-7-1.06-1.03-0.156-2.06-0.312-3.12-0.473-1.7-0.275-3.39-0.588-5.07-0.986-3.54-0.604-7.01-0.622-10.6-0.612-0.738-9.57e-4 -1.48-0.00191-2.24-0.0029-1.55-6.78e-4 -3.11 0.00115-4.66 0.00534-2.37 0.00536-4.75 3.82e-5 -7.12-0.00635-1.51 6.61e-4 -3.03 0.00194-4.54 0.00391-0.707-0.00202-1.41-0.00405-2.14-0.00613-3.33 0.0158-6.31 0.187-9.51 1.14-1.79 0.208-3.59 0.413-5.38 0.596-7.52 0.769-14.9 1.92-22.3 3.4-0.837 0.166-1.67 0.332-2.54 0.503-4.38 0.902-8.55 2-12.8 3.5-1.48 0.421-2.96 0.838-4.44 1.25-16 4.8-30.7 12.4-45.2 20.5-0.659 0.365-1.32 0.729-2 1.1-3.73 2.11-7.02 4.39-10.3 7.15-2.04 1.57-4.08 3.13-6.12 4.69-2.3 1.77-4.59 3.54-6.88 5.31-0.924 0.713-1.85 1.43-2.8 2.16-10.9 8.63-21.1 18.5-29.2 29.8-0.777 1.06-1.55 2.11-2.36 3.2-5.63 7.7-10.8 15.6-15.6 23.8-0.634 1.02-1.27 2.03-1.92 3.08-11 18.2-18.5 38.6-22.4 59.4-0.711 3.51-0.711 3.51-1.69 6.7-1.11 4.12-1.71 8.07-2.14 12.3-0.0845 0.816-0.169 1.63-0.256 2.47-0.973 10.4-0.843 20.8-0.752 31.2 0.0101 2.03 0.0192 4.07 0.0273 6.1 0.0217 4.9 0.056 9.81 0.0977 14.7-1.42-0.145-2.85-0.293-4.27-0.444-0.793-0.0823-1.59-0.165-2.4-0.25-3.22-0.425-6.22-1.29-9.32-2.24-8.81-2.6-16.8-4.27-26-4.82-3.02-0.246-3.02-0.246-5.4-0.753-2.59-0.487-4.93-0.622-7.56-0.626-0.913-0.00129-1.83-0.00258-2.77-0.00391-0.942 0.00387-1.88 0.00773-2.85 0.0117-1.42-0.0058-1.42-0.0058-2.87-0.0117-0.912 0.00129-1.82 0.00258-2.76 0.00391-0.827 0.00113-1.65 0.00226-2.51 0.00342-2.23 0.126-4.14 0.573-6.3 1.13l-3.12-0.0625c-3.96 0.0638-7.4 0.668-11.2 1.51-1.65 0.345-3.31 0.647-4.98 0.883-36.5 5.27-73.6 29.9-95.8 58.9-10.1 13.6-18 27.9-23.8 43.8-0.306 0.82-0.611 1.64-0.926 2.49-14.1 38.3-13.3 82.8 3.85 120 1.01 2.14 2.04 4.28 3.08 6.41 0.567 1.16 1.13 2.33 1.72 3.53 4.32 8.41 9.56 16 15.3 23.5 0.498 0.654 0.996 1.31 1.51 1.98 9.55 12.4 19.9 24 33.5 32 1.32 0.801 2.63 1.6 3.95 2.4 7.81 4.71 15.6 9.19 24.1 12.6 1.17 0.48 2.35 0.959 3.56 1.45 29.7 11.8 59.3 12.6 90.9 12.9 2.37 0.0206 4.74 0.0416 7.11 0.063 6.16 0.0545 12.3 0.104 18.5 0.153 6.32 0.0507 12.6 0.106 18.9 0.161 12.3 0.107 24.7 0.208 37 0.307-0.00277-0.997-0.00553-1.99-0.00838-3.02-0.0665-24.2-0.116-48.5-0.147-72.7-0.0155-11.7-0.0366-23.4-0.0709-35.2-0.0299-10.2-0.0492-20.4-0.0559-30.6-0.00392-5.41-0.0132-10.8-0.0349-16.2-0.0203-5.09-0.0267-10.2-0.0221-15.3-8.28e-4 -1.87-0.00683-3.74-0.0183-5.61-0.0149-2.55-0.0114-5.09-0.00315-7.64-0.00874-0.746-0.0175-1.49-0.0265-2.26 0.0435-4.97 0.0435-4.97 1.72-7.39 4.12-2.67 8.52-2.22 13.2-2.21 0.837-9.57e-4 1.67-0.00191 2.54-0.0029 1.77-6.8e-4 3.53 0.00116 5.3 0.00534 2.71 0.00536 5.43 4.23e-5 8.14-0.00635 1.71 6.61e-4 3.43 0.00194 5.14 0.00391 0.817-0.00202 1.63-0.00405 2.47-0.00613 5.72 0.024 5.72 0.024 6.83 1.14 0.289 11.1-2.77 22.1-5.11 32.9-1.07 4.94-2.09 9.88-3.11 14.8-0.398 1.92-0.797 3.84-1.2 5.76-0.597 2.88-1.19 5.76-1.79 8.63-0.565 2.73-1.13 5.45-1.7 8.18-0.18 0.863-0.36 1.73-0.545 2.61-0.986 4.68-2.08 9.3-3.31 13.9-2.11 8.35-1.58 13.8 2.77 21.2 0.826 1.48 1.65 2.97 2.47 4.46 0.631 1.12 0.631 1.12 1.27 2.27 1.99 3.61 3.85 7.28 5.69 11 0.329 0.646 0.659 1.29 0.998 1.96 1.44 2.88 2.66 5.65 3.62 8.72 0.696 2.88 0.696 2.88 3.57 4 0.784 0.206 1.57 0.412 2.38 0.625 0.254-1.16 0.508-2.33 0.77-3.53 1.09-4.36 2.83-8.08 4.92-12 0.713-1.4 1.43-2.8 2.14-4.21 1.07-2.08 2.14-4.16 3.23-6.23 1-1.91 1.97-3.83 2.94-5.75 0.578-1.11 1.15-2.22 1.75-3.36 3.39-8.5 1.02-18.8-0.797-27.4-0.319-1.58-0.319-1.58-0.644-3.19-0.676-3.33-1.37-6.66-2.06-9.99-0.449-2.21-0.897-4.42-1.34-6.63-2.18-10.7-4.47-21.4-7.04-32.1-4.33-18.2-4.33-18.2-3.86-25.6 2.54-2.54 4.13-2.24 7.59-2.25 1.14 0.0108 1.14 0.0108 2.31 0.0218 1.18 6.87e-4 1.18 6.87e-4 2.38 0.00139 1.66 0.00302 3.32 0.0109 4.99 0.0233 2.53 0.0182 5.07 0.0205 7.6 0.0203 1.62 0.00492 3.23 0.0107 4.85 0.0176 1.13 0.00167 1.13 0.00167 2.29 0.00337 8.14 0.0727 8.14 0.0727 11 1.16 2.19 4.1 2.26 7.74 2.27 12.3 0.00509 0.729 0.0102 1.46 0.0154 2.21 0.0146 2.44 0.0152 4.87 0.0158 7.31 0.00766 1.75 0.0162 3.5 0.0256 5.25 0.0183 3.77 0.0303 7.54 0.0375 11.3 0.0115 5.97 0.037 11.9 0.0643 17.9 0.0417 9.46 0.0741 18.9 0.102 28.4 0.0509 16.9 0.114 33.8 0.185 50.7 0.0248 5.92 0.0443 11.8 0.0594 17.8 0.0103 3.7 0.0244 7.41 0.0395 11.1 0.00609 1.7 0.0106 3.41 0.0133 5.11 0.0153 9.23 0.244 18.4 0.944 27.6 0.949 12.8 0.108 25.8-0.282 38.7-0.0477 1.59-0.0953 3.18-0.143 4.77-0.116 3.86-0.232 7.73-0.349 11.6-26.5 0.0235-53 0.041-79.6 0.0518-12.3 0.00513-24.6 0.0121-37 0.0236-10.7 0.01-21.5 0.0164-32.2 0.0186-5.68 0.00129-11.4 0.00428-17 0.0116-74.4 0.0924-74.4 0.0924-104-9.11-1.16-0.347-2.32-0.694-3.51-1.05-24.2-7.62-45.9-20.2-66.5-34.9l-2.77-1.95c-1.79-1.29-3.52-2.66-5.23-4.05v-2h-2c-1.7-1.63-3.36-3.31-5-5-1.03-0.95-2.07-1.89-3.11-2.82l-1.59-1.43c-1.09-0.972-2.18-1.94-3.27-2.91-1.38-1.24-2.7-2.54-4.02-3.84v-2h-2v-2h-2c-1.77-2.05-3.43-4.1-5.06-6.25-0.492-0.64-0.983-1.28-1.49-1.94-1.01-1.31-2.01-2.63-3.02-3.95-1.25-1.63-2.52-3.23-3.8-4.83-6.63-8.43-11.7-17.5-16.6-27-0.58-1.1-0.58-1.1-1.17-2.23-24.5-47.2-31-107-15.9-159 7.6-24 18.3-46.8 33-67.3 0.75-1.04 1.5-2.09 2.27-3.16 14.1-19.1 14.1-19.1 22.2-25.6 1.71-1.34 1.71-1.34 3.88-3.59 17.1-17.1 38.7-30.4 60.6-40.6 1.14-0.534 2.28-1.07 3.45-1.62 24.2-10.8 52.8-18.3 79.4-17.4 4.72-0.0417 9.4-0.557 14.1-1.03 0.0845-0.541 0.169-1.08 0.256-1.64 7.56-47.2 27-93.5 57.7-130 0.416-0.506 0.831-1.01 1.26-1.53 6.01-7.3 12.3-14.2 19-20.9 0.649-0.65 1.3-1.3 1.97-1.97 4.44-4.39 9.04-8.54 13.8-12.6 0.597-0.514 1.19-1.03 1.81-1.56 15.6-13.4 32.7-24.4 51.2-33.4 0.709-0.355 1.42-0.71 2.15-1.08 70.9-35.2 163-40.3 235-3.91z" fill="#00ADF1"/>
<path transform="translate(914 557)" d="m0 0c1.28 6.87e-4 1.28 6.87e-4 2.59 0.00139 1.8 0.00302 3.61 0.0109 5.41 0.0233 2.77 0.0183 5.53 0.0205 8.3 0.0203 1.75 0.00491 3.51 0.0107 5.26 0.0176 1.25 0.00167 1.25 0.00167 2.52 0.00337 5.84 0.0485 5.84 0.0485 8.07 1.16-1.37 7.88-2.96 15.7-4.63 23.5-0.446 2.09-0.889 4.18-1.33 6.27-1.59 7.51-3.21 15-4.87 22.5-0.836 3.78-1.66 7.57-2.49 11.4-0.406 1.84-0.815 3.69-1.23 5.53-4.56 17.3-4.56 17.3-0.00974 33.9 0.729 1.28 1.46 2.55 2.18 3.83 0.578 0.991 0.578 0.991 1.17 2 2.16 3.76 4.18 7.59 6.21 11.4 0.398 0.735 0.795 1.47 1.2 2.23 2.8 5.23 2.8 5.23 2.8 7.46 1.32 0.33 2.64 0.66 4 1 4.45-7.64 8.76-15.3 12.6-23.3 1.64-3.24 3.51-6.29 5.5-9.32 3.3-9.06-0.69-20-2.68-29.1-0.363-1.69-0.726-3.38-1.09-5.07-2.6-12.1-5.29-24.1-8.09-36.2-4.76-20.6-4.76-20.6-4.26-27.1 2.54-2.54 4.13-2.24 7.59-2.25 0.761 0.00719 1.52 0.0144 2.31 0.0218 0.784 4.58e-4 1.57 9.16e-4 2.38 0.00139 1.66 0.00302 3.32 0.0109 4.99 0.0233 2.53 0.0182 5.07 0.0205 7.6 0.0203 1.62 0.00492 3.23 0.0107 4.85 0.0176 1.13 0.00167 1.13 0.00167 2.29 0.00337 7.59 0.0678 7.59 0.0678 11 1.16 2.62 3.93 2.29 7.27 2.27 11.8 0.00509 0.914 0.0102 1.83 0.0154 2.77 0.0147 3.08 0.0152 6.15 0.0158 9.23 0.00766 2.2 0.0162 4.4 0.0256 6.6 0.0183 4.75 0.0303 9.5 0.0375 14.3 0.0115 7.54 0.037 15.1 0.0643 22.6 0.037 10.6 0.0677 21.2 0.0928 31.8 0.0016 0.673 0.00319 1.35 0.00484 2.04 0.0024 1.01 0.0024 1.01 0.00485 2.04 0.0226 9.49 0.0472 19 0.0743 28.5 0.00284 0.997 0.00284 0.997 0.00575 2.01 0.032 11.2 0.0678 22.3 0.105 33.5 0.0247 7.47 0.0441 14.9 0.0595 22.4 0.0509 34.7 0.0509 34.7 1.22 69.5 13.1 0.0468 26.2 0.0821 39.2 0.104 6.08 0.0103 12.2 0.0243 18.2 0.0473 66.9 1.87 66.9 1.87 129-19.9 2.74-1.38 4.47-1.51 7.49-1.25-0.49 4.24-1.55 6.02-4.81 8.75-0.687 0.593-1.37 1.19-2.08 1.8-2.09 1.44-3.62 2.03-6.11 2.45v2h-2c-0.33 0.99-0.66 1.98-1 3-0.843 0.121-1.69 0.242-2.55 0.367-1.1 0.168-2.19 0.335-3.32 0.508-1.09 0.162-2.18 0.325-3.3 0.492-2.94 0.395-2.94 0.395-4.82 2.63-2.6 0.414-2.6 0.414-5.62 0.625-1.5 0.112-1.5 0.112-3.04 0.227-0.771 0.049-1.54 0.098-2.34 0.148 4.03 0.926 6.94 0.85 11 0-0.33 0.66-0.66 1.32-1 2-2.18 0.562-2.18 0.562-4.88 1-3.51 0.572-5.1 0.98-8.12 3-0.99 0.33-1.98 0.66-3 1-0.825 1.01-1.65 2.02-2.5 3.06-0.825 0.969-1.65 1.94-2.5 2.94h-3c-0.648 2.41-1.1 4.71-1.44 7.19-0.186 0.928-0.371 1.86-0.562 2.81-0.66 0.33-1.32 0.66-2 1-0.656 2.53-0.656 2.53-1 5h-3v4c0.99-0.33 1.98-0.66 3-1v2c-1.32 0.33-2.64 0.66-4 1v-3h-6v8h-2v10c0.736 0.0606 1.47 0.121 2.23 0.184 1.46 0.126 1.46 0.126 2.96 0.254 0.963 0.0812 1.93 0.162 2.92 0.246 2.68 0.293 5.26 0.743 7.89 1.32v1c-13.5 0.848-26.9 1.15-40.5 1.15-2.08 3e-3 -4.15 0.00641-6.23 0.0102-5.57 0.00874-11.1 0.0112-16.7 0.0118-3.49 7.15e-4 -6.97 0.00286-10.5 0.0055-12.2 0.00921-24.3 0.0133-36.5 0.0125-11.3-6.04e-4 -22.7 0.01-34 0.0257-9.75 0.0131-19.5 0.0184-29.3 0.0178-5.82-2.55e-4 -11.6 0.0026-17.5 0.0132-5.45 0.00965-10.9 0.00978-16.4 0.00248-2-0.00105-4.01 0.00133-6.01 0.00736-2.73 0.00768-5.46 0.0031-8.18-0.00463-0.796 0.00514-1.59 0.0103-2.41 0.0156-3.79-0.0239-6.73-0.12-9.95-2.26-0.749-24.8-1.12-49.5-1.28-74.3-0.0047-0.716-0.00941-1.43-0.0143-2.17-0.0586-8.99-0.112-18-0.164-27-0.082-14.2-0.176-28.3-0.271-42.5-0.0104-1.55-0.0208-3.11-0.0312-4.66-0.165-24.8-0.402-49.5-0.768-74.3-0.585-39.8-0.585-39.8-0.647-57.5-0.0073-1.85-0.0178-3.71-0.032-5.56-0.127-17.5-0.127-17.5 2.21-24.1 3.67-2.91 8.4-2.27 12.9-2.23z" fill="#00ACF1"/>
<path transform="translate(798 592)" d="m0 0c1.08-0.00144 1.08-0.00144 2.18-0.0029 1.5-6.75e-4 3 0.00113 4.5 0.00534 2.31 0.00541 4.62 2.4e-6 6.92-0.00635 1.46 6.6e-4 2.93 0.00194 4.39 0.00391 0.692-0.00202 1.38-0.00405 2.1-0.00613 4.82 0.024 4.82 0.024 5.94 1.14 0.0183 9.99-2.12 19.8-4.04 29.6-0.536 2.72-1.06 5.44-1.59 8.16-1.67 8.65-3.38 17.3-5.11 25.9-0.746 3.73-1.49 7.46-2.23 11.2-0.525 2.63-1.06 5.25-1.6 7.88-0.324 1.62-0.647 3.25-0.97 4.87-0.15 0.717-0.299 1.43-0.453 2.17-1.22 6.23-2.68 13.7 0.891 19.3 0.41 0.672 0.821 1.34 1.24 2.04 0.668 1.03 0.668 1.03 1.35 2.07 0.453 0.727 0.905 1.45 1.37 2.2 0.922 1.48 1.85 2.95 2.79 4.42 1.25 1.98 2.44 3.98 3.61 6.01 0.347 0.593 0.694 1.19 1.05 1.8 0.932 1.59 1.86 3.19 2.79 4.78 2.03 2.74 3.87 4.01 6.89 5.54 0.267-0.888 0.534-1.78 0.809-2.69 1.13-3.14 2.41-5.48 4.25-8.25 0.917-1.42 0.917-1.42 1.85-2.87 1.09-1.67 2.18-3.33 3.29-4.98 1.27-1.89 2.5-3.8 3.73-5.71 0.602-0.87 0.602-0.87 1.22-1.76 4.76-7.51 3.22-16.2 1.39-24.6-0.321-1.39-0.321-1.39-0.649-2.8-0.464-2.11-0.925-4.23-1.38-6.35-0.369-1.7-0.369-1.7-0.746-3.42-1.39-6.56-2.63-13.2-3.88-19.7-0.131-0.692-0.262-1.38-0.397-2.1-0.667-3.53-1.33-7.06-1.99-10.6-0.682-3.63-1.37-7.26-2.06-10.9-0.538-2.84-1.07-5.67-1.6-8.51-0.373-1.98-0.752-3.97-1.13-5.95-0.224-1.2-0.448-2.41-0.679-3.65-0.198-1.05-0.396-2.1-0.6-3.19-0.433-3.07-0.635-5.89-0.422-8.99 2.6-2.6 4.4-2.24 7.94-2.25 1.22 0.0108 1.22 0.0108 2.46 0.0218 0.834 4.58e-4 1.67 9.16e-4 2.53 0.00139 1.76 0.00302 3.53 0.0109 5.29 0.0233 2.7 0.0182 5.4 0.0205 8.1 0.0203 1.71 0.00492 3.43 0.0107 5.14 0.0176 0.809 0.00111 1.62 0.00223 2.45 0.00337 3.28 0.0277 5.95 0.121 9.08 1.16 3.16 6.32 2.14 15.4 2.12 22.3 8.54e-4 1.11 0.00171 2.21 0.00259 3.35 0.00164 3.69-0.00384 7.38-0.00932 11.1-2.82e-4 2.65-1.67e-4 5.3 4.43e-4 7.95 5.23e-4 5.7-0.0026 11.4-0.00824 17.1-0.00815 8.24-0.0107 16.5-0.012 24.7-0.00219 13.4-0.00883 26.7-0.0183 40.1-0.00919 13-0.0163 26-0.0205 39-2.63e-4 0.801-5.25e-4 1.6-7.96e-4 2.43-0.00131 4.02-0.00257 8.04-0.00381 12.1-0.0104 33.3-0.028 66.6-0.0503 99.9-7.48 0.14-15 0.276-22.4 0.407-3.47 0.0612-6.95 0.124-10.4 0.189-57.6 1.08-57.6 1.08-63.1-2.6-2.77-11.8-1.14-25.8-1.13-37.9-0.00136-2.51-0.00314-5.03-0.00531-7.54-0.00407-6.09-0.0035-12.2-5.87e-4 -18.3 0.00227-4.95 0.00256-9.9 0.00148-14.8-1.53e-4 -0.707-3.06e-4 -1.41-4.64e-4 -2.14-3.2e-4 -1.44-6.44e-4 -2.87-9.73e-4 -4.31-0.00284-13.4 4.17e-4 -26.9 0.0058-40.3 0.00447-11.5 0.00369-23-9.19e-4 -34.5-0.00535-13.4-0.00746-26.8-0.00439-40.2 3.19e-4 -1.43 6.33e-4 -2.86 9.43e-4 -4.29 1.54e-4 -0.703 3.09e-4 -1.41 4.68e-4 -2.13 8.62e-4 -4.94-5.91e-4 -9.89-0.00295-14.8-0.0031-6.65-8.87e-4 -13.3 0.00489-20 0.00132-2.44 9.42e-4 -4.88-0.00126-7.33-0.00273-3.33 6.93e-4 -6.66 0.00568-9.99-0.00223-0.967-0.00446-1.93-0.00676-2.93 0.0391-13.4 0.0391-13.4 3.13-16.5 5.33-0.906 10.6-1.15 16-1.13z" fill="#00ACF1"/>
<path transform="translate(1e3 266)" d="m0 0c5.04 2.33 8.84 6.39 12.8 10.2 1.07 1.02 1.07 1.02 2.17 2.06 2.01 1.91 4.02 3.83 6.02 5.76 0.828 0.785 1.66 1.57 2.51 2.38 40.6 39.3 61.7 93.4 72.5 148 3.16 0.904 6.14 1.21 9.42 1.39 53.4 3.28 103 18.6 143 55.5 2.11 1.94 4.27 3.8 6.46 5.65 3.3 2.88 6.16 5.96 8.98 9.3 1.25 1.45 2.53 2.87 3.84 4.27 19.9 21.1 34.3 48.5 43.6 75.9 0.248 0.723 0.496 1.45 0.751 2.19 1.3 4.04 1.97 7.57 1.62 11.8l-1 1c-0.234 2.02-0.413 4.04-0.562 6.06-0.0838 1.1-0.168 2.21-0.254 3.35-0.0606 0.855-0.121 1.71-0.184 2.59l-2-2c0.0234-2.16 0.0234-2.16 0.375-4.62 0.111-0.817 0.222-1.63 0.336-2.48 0.0954-0.626 0.191-1.25 0.289-1.9h-4c0.33 0.701 0.66 1.4 1 2.12 1.09 3.14 1.15 5.58 1 8.88-1.32-1.32-2.64-2.64-4-4-0.145 2.88-0.145 2.88 0.625 5.06 0.124 0.639 0.247 1.28 0.375 1.94l-2 2c-6-8.8-6-8.8-6-13h-2v-2c-0.99-0.33-1.98-0.66-3-1 0.0522-1.18 0.0522-1.18 0.105-2.38 0.166-6.44-0.0741-10.9-3.11-16.6-1-3-1-3-1-6h-2c-3.29-5.14-4.76-9.21-5.38-15.2-0.141-1.06-0.141-1.06-0.285-2.14-0.448-3.88-0.574-5.26 1.66-8.61 1.32 2.64 2.64 5.28 4 8-0.33-3.3-0.66-6.6-1-10-0.99-0.33-1.98-0.66-3-1v-3c-0.99-0.33-1.98-0.66-3-1-0.33-1.98-0.66-3.96-1-6-0.99 0.33-1.98 0.66-3 1v9c-1.49-2.99-2.79-5.9-4-9-0.33 2.97-0.66 5.94-1 9-4.88-4.62-4.88-4.62-6-8h-2v-2h-2v-2c-1.65-0.33-3.3-0.66-5-1v-2h-2v-2h-2c-0.33-1.32-0.66-2.64-1-4-1.28-0.124-2.56-0.247-3.88-0.375-3.88-0.375-3.88-0.375-6.12-2.62-0.66 0.66-1.32 1.32-2 2-1.32-0.66-2.64-1.32-4-2-0.33 3.3-0.66 6.6-1 10h2v2h2c-0.33-0.557-0.66-1.11-1-1.69-1.13-2.62-1.16-4.49-1-7.31 2.36 2.36 2.49 3.78 3 7h2v2h3v2h2v2c0.639 0.103 1.28 0.206 1.94 0.312 1.02 0.34 1.02 0.34 2.06 0.688 0.927 2.78 1.13 4.47 1.13 7.34 0.00129 0.834 0.00258 1.67 0.00391 2.53-0.00387 0.868-0.00773 1.74-0.0117 2.63 0.00387 0.868 0.00773 1.74 0.0117 2.63-0.00193 1.25-0.00193 1.25-0.00391 2.53-0.00113 0.761-0.00226 1.52-0.00342 2.31-0.129 2.04-0.129 2.04-1.13 5.04h2v5h-2c-0.33-0.99-0.66-1.98-1-3-0.66 1.32-1.32 2.64-2 4-4.55-3.04-7.11-6.85-10.1-11.3-11.1-16.1-24.5-28.6-40.4-39.9-7.37-5.36-7.37-5.36-8.32-8.57-0.0619-0.742-0.124-1.48-0.188-2.25 0.949-0.124 1.9-0.248 2.88-0.375 3.21-0.342 3.21-0.342 5.12-2.62 0.33-0.66 0.66-1.32 1-2h4v-6c-1.32-0.33-2.64-0.66-4-1 0.33-0.99 0.66-1.98 1-3l2 1c0.33-0.66 0.66-1.32 1-2-1.32-0.33-2.64-0.66-4-1 0.33-0.99 0.66-1.98 1-3 2.1 0.141 4.21 0.288 6.31 0.438 1.76 0.122 1.76 0.122 3.55 0.246 3.14 0.316 3.14 0.316 6.14 1.32v-2c-1.42-0.433-1.42-0.433-2.88-0.875-3.12-1.12-3.12-1.12-5.12-3.12 1.98-0.33 3.96-0.66 6-1-2.01-1.02-4.04-2.01-6.06-3-1.13-0.557-2.25-1.11-3.41-1.69-3.79-1.41-6.53-1.32-10.5-1.31-2.4-1.28-2.4-1.28-4.38-2.94-0.668-0.545-1.34-1.09-2.02-1.65-0.887-0.781-1.77-1.57-2.6-2.41-2.29-0.282-4.57-0.448-6.87-0.621-2.13-0.379-2.13-0.379-4.13-2.38-2.07-0.52-4.16-0.969-6.25-1.38-5.24-1.14-8.59-2.32-12.8-5.62-1.32-0.694-2.65-1.38-4-2 0.99-0.66 1.98-1.32 3-2-0.99-0.66-1.98-1.32-3-2 0.33-0.66 0.66-1.32 1-2l2 1c-1.76-2.21-2.66-2.94-5.49-3.44-0.932-0.04-1.86-0.0799-2.82-0.121-4.23-0.273-7.71-0.886-11.7-2.44-0.681-0.165-1.36-0.33-2.06-0.5-1.94-0.5-1.94-0.5-4.5-1.62-2.52-1.19-2.52-1.19-5.44 0.125-1.35 0.169-2.71 0.313-4.06 0.438-3.94 0.16-3.94 0.16-5.94 2.56 1.98 0.99 1.98 0.99 4 2-9.41 4.68-9.41 4.68-15 4l-2-1v-2h-3c0.348 1.98 0.348 1.98 1 4l2 1c-12.7 4.32-12.7 4.32-18 4-1.26-3.85-1.11-7.69-1.06-11.7 0.00451-0.689 0.00902-1.38 0.0137-2.09 0.012-1.74 0.0299-3.48 0.0488-5.22 0-1.89-0.587-3.73-1-5.56-0.186-0.826-0.371-1.65-0.562-2.5-0.217-0.957-0.217-0.957-0.438-1.93h-3v-2l-2-1h3c0.0269-2.15 0.0463-4.29 0.0625-6.44 0.0116-1.19 0.0232-2.39 0.0352-3.62 0.241-2.83 0.241-2.83-1.1-3.94-0.146-3.37-0.0719-5.78 1-9-0.234-2.72-0.556-5.32-1-8-0.168-1.11-0.168-1.11-0.34-2.24-0.928-5.11-2.65-8.62-5.55-12.9-1.87-3.13-2.11-6.28-2.11-9.86-0.99-1.18-0.99-1.18-2-2.38-2-2.62-2-2.62-2-6.62-1.06-1.75-1.06-1.75-2.5-3.25-0.825-0.908-1.65-1.82-2.5-2.75 1.65 0.33 3.3 0.66 5 1v2h2c0.495-1.49 0.495-1.49 1-3-0.619-0.619-1.24-1.24-1.88-1.88-3.27-3.27-4.76-5.56-6.34-9.97-0.725-1.98-1.51-3.91-2.35-5.84-1.2-2.75-2.34-5.52-3.44-8.31h-3c0.495 1.45 0.495 1.45 1 2.94 0.943 2.89 1 3.31 1 6.06h2c0.33 1.98 0.66 3.96 1 6h2c-0.0206 1.07-0.0412 2.14-0.0625 3.25 0.0483 2.9 0.194 5.04 1.06 7.75h-2c-1.62-2.5-1.62-2.5-3-5-1.45 1.45-1.56 3.04-2 5-0.33-1.65-0.66-3.3-1-5-1.32-0.33-2.64-0.66-4-1v-2h-9v-2c-2.47 0.99-2.47 0.99-5 2v-4c-1.32-0.33-2.64-0.66-4-1v-4h-2v-2h-6v-2c-1.14 0.309-1.14 0.309-2.31 0.625-2.69 0.375-2.69 0.375-5.69-1.62v-3h3v-2h-3v-3h-9c-0.33-0.66-0.66-1.32-1-2h2v-2h-2v-4c1.65-0.66 3.3-1.32 5-2v-6h-2c-5.79-7.16-10.2-13.6-9.32-23.1 0.157-0.947 0.157-0.947 0.316-1.91 2.75 1.38 3.51 3.37 5 6-1.06-6.71-1.06-6.71-3.62-12.9-2.07-4.6-1.61-9.09-1.38-14.1h2v3h2v5c1.42-1.18 1.42-1.18 1.06-4.56-0.0206-1.13-0.0412-2.27-0.0625-3.44l2-1z" fill="#00ACF0"/>
<path transform="translate(1e3 266)" d="m0 0c5.04 2.33 8.84 6.39 12.8 10.2 1.07 1.02 1.07 1.02 2.17 2.06 2.01 1.91 4.02 3.83 6.02 5.76 0.828 0.785 1.66 1.57 2.51 2.38 40.6 39.3 61.7 93.4 72.5 148 1.32 0.33 2.64 0.66 4 1v2l2 1h-2c0.135 1.97 0.135 1.97 1 4 2.11 1.08 2.11 1.08 4.69 1.62 1.35 0.354 1.35 0.354 2.72 0.715 0.855 0.218 1.71 0.436 2.59 0.66 2 0.656 4.01 1.32 6 2-0.99 0.33-1.98 0.66-3 1-1.34 0.651-2.68 1.32-4 2 1.98 0.99 1.98 0.99 4 2-9.41 4.68-9.41 4.68-15 4l-2-1v-2h-3c0.348 1.98 0.348 1.98 1 4l2 1c-12.7 4.32-12.7 4.32-18 4-1.26-3.85-1.11-7.69-1.06-11.7 0.00451-0.689 0.00902-1.38 0.0137-2.09 0.012-1.74 0.0299-3.48 0.0488-5.22 0-1.89-0.587-3.73-1-5.56-0.186-0.826-0.371-1.65-0.562-2.5-0.217-0.957-0.217-0.957-0.438-1.93h-3v-2l-2-1h3c0.0269-2.15 0.0463-4.29 0.0625-6.44 0.0116-1.19 0.0232-2.39 0.0352-3.62 0.241-2.83 0.241-2.83-1.1-3.94-0.146-3.37-0.0719-5.78 1-9-0.234-2.72-0.556-5.32-1-8-0.168-1.11-0.168-1.11-0.34-2.24-0.928-5.11-2.65-8.62-5.55-12.9-1.87-3.13-2.11-6.28-2.11-9.86-0.99-1.18-0.99-1.18-2-2.38-2-2.62-2-2.62-2-6.62-1.06-1.75-1.06-1.75-2.5-3.25-0.825-0.908-1.65-1.82-2.5-2.75 1.65 0.33 3.3 0.66 5 1v2h2c0.495-1.49 0.495-1.49 1-3-0.619-0.619-1.24-1.24-1.88-1.88-3.27-3.27-4.76-5.56-6.34-9.97-0.725-1.98-1.51-3.91-2.35-5.84-1.2-2.75-2.34-5.52-3.44-8.31h-3c0.495 1.45 0.495 1.45 1 2.94 0.943 2.89 1 3.31 1 6.06h2c0.33 1.98 0.66 3.96 1 6h2c-0.0206 1.07-0.0412 2.14-0.0625 3.25 0.0483 2.9 0.194 5.04 1.06 7.75h-2c-1.62-2.5-1.62-2.5-3-5-1.45 1.45-1.56 3.04-2 5-0.33-1.65-0.66-3.3-1-5-1.32-0.33-2.64-0.66-4-1v-2h-9v-2c-2.47 0.99-2.47 0.99-5 2v-4c-1.32-0.33-2.64-0.66-4-1v-4h-2v-2h-6v-2c-1.14 0.309-1.14 0.309-2.31 0.625-2.69 0.375-2.69 0.375-5.69-1.62v-3h3v-2h-3v-3h-9c-0.33-0.66-0.66-1.32-1-2h2v-2h-2v-4c1.65-0.66 3.3-1.32 5-2v-6h-2c-5.79-7.16-10.2-13.6-9.32-23.1 0.157-0.947 0.157-0.947 0.316-1.91 2.75 1.38 3.51 3.37 5 6-1.06-6.71-1.06-6.71-3.62-12.9-2.07-4.6-1.61-9.09-1.38-14.1h2v3h2v5c1.42-1.18 1.42-1.18 1.06-4.56-0.0206-1.13-0.0412-2.27-0.0625-3.44l2-1z" fill="#00ACEC"/>
<path transform="translate(674 620)" d="m0 0c0.837-9.57e-4 1.67-0.00191 2.54-0.0029 1.77-6.8e-4 3.53 0.00116 5.3 0.00534 2.71 0.00536 5.43 4.23e-5 8.14-0.00635 1.71 6.61e-4 3.43 0.00194 5.14 0.00391 0.817-0.00202 1.63-0.00405 2.47-0.00613 5.72 0.024 5.72 0.024 6.83 1.14 0.289 11.1-2.77 22.1-5.11 32.9-1.07 4.94-2.09 9.88-3.11 14.8-0.398 1.92-0.797 3.84-1.2 5.76-0.597 2.88-1.19 5.76-1.79 8.63-0.565 2.73-1.13 5.45-1.7 8.18-0.18 0.863-0.36 1.73-0.545 2.61-0.986 4.68-2.08 9.3-3.31 13.9-1.52 6.01-2.55 11.2 0.523 16.9 0.74 1.22 1.49 2.43 2.25 3.64 3.71 6.32 5.11 11.3 4 18.7h-8c0.433 0.433 0.866 0.866 1.31 1.31 0.557 0.557 1.11 1.11 1.69 1.69 0.557 0.516 1.11 1.03 1.69 1.56 1.31 1.44 1.31 1.44 1.31 3.44h-2c-0.495-0.99-0.495-0.99-1-2-5.94-1.88-11.8-2.11-18-2-0.99-0.33-1.98-0.66-3-1v-4c-2.97 0.495-2.97 0.495-6 1-0.33 2.31-0.66 4.62-1 7-1.88-3.2-2.25-5.55-2.26-9.24-0.00708-1.06-0.0142-2.12-0.0215-3.22 0.00248-1.16 0.00495-2.32 0.00751-3.51-0.00511-1.22-0.0102-2.45-0.0155-3.71-0.0115-3.36-0.014-6.71-0.0114-10.1 0.00107-2.8-0.00381-5.6-0.00861-8.4-0.0111-6.61-0.0115-13.2-0.00549-19.8 0.00605-6.82-0.00629-13.6-0.0276-20.5-0.0176-5.85-0.0236-11.7-0.0204-17.6 0.00181-3.5-8.44e-4 -6.99-0.0147-10.5-0.0149-3.9-0.00562-7.79 0.00601-11.7-0.00764-1.16-0.0153-2.32-0.0232-3.52 0.00701-1.06 0.014-2.12 0.0213-3.21-1.68e-4 -0.921-3.35e-4 -1.84-5.08e-4 -2.79 0.451-2.8 1.13-3.65 3.37-5.33 3.87-1.29 7.54-1.14 11.6-1.13z" fill="#00ACEC"/>
<path transform="translate(798 592)" d="m0 0c1.08-0.00144 1.08-0.00144 2.18-0.0029 1.5-6.75e-4 3 0.00113 4.5 0.00534 2.31 0.00541 4.62 2.4e-6 6.92-0.00635 1.46 6.6e-4 2.93 0.00194 4.39 0.00391 0.692-0.00202 1.38-0.00405 2.1-0.00613 4.82 0.024 4.82 0.024 5.94 1.14 0.0183 9.99-2.12 19.8-4.04 29.6-0.536 2.72-1.06 5.44-1.59 8.16-1.67 8.65-3.38 17.3-5.11 25.9-0.746 3.73-1.49 7.46-2.23 11.2-0.525 2.63-1.06 5.25-1.6 7.88-0.324 1.62-0.647 3.25-0.97 4.87-0.15 0.717-0.299 1.43-0.453 2.17-1.22 6.23-2.52 13.1 0.735 18.9 0.742 1.08 1.49 2.17 2.25 3.29 4 5.9 4 5.9 4 8.06h-3c-0.99 0.495-0.99 0.495-2 1v-2h-2l-1-2c-1.49-0.495-1.49-0.495-3-1-0.33 0.66-0.66 1.32-1 2-4.75 0.125-4.75 0.125-7-1-0.99 0.99-0.99 0.99-2 2v-2c-1.32-0.33-2.64-0.66-4-1-0.33 0.99-0.66 1.98-1 3-0.66-0.99-1.32-1.98-2-3-0.33 1.32-0.66 2.64-1 4h-3c-0.33-3.3-0.66-6.6-1-10-0.33 31-0.66 62-1 94h-1c-0.785-45.9-1.11-91.7-1.12-138-0.00162-3.94-0.00518-7.89-0.00919-11.8-0.00585-6.27-0.00608-12.5-0.00175-18.8 9.96e-4 -2.33 4.12e-4 -4.66-0.00184-6.99-0.00255-3.21 0.00125-6.42 0.00676-9.63-0.00203-0.936-0.00405-1.87-0.00614-2.84 0.043-13.3 0.043-13.3 3.14-16.4 5.33-0.906 10.6-1.15 16-1.13z" fill="#00ADEC"/>
<path transform="translate(728 528)" d="m0 0c8.27 6.77 13.7 14.8 15.5 25.4 1.08 11.9-1.18 21.3-8.55 30.6-7.53 8.22-16.6 10.7-27.4 11.1-10.2 0.116-19.1-2.98-26.9-9.78-5.62-6.02-10.4-13.8-10.9-22.2-0.0825-1.24-0.165-2.48-0.25-3.75 0.148-9.67 4.36-19.5 10.9-26.4 13.8-13 31.2-13.9 47.6-5.06z" fill="#000204"/>
<path transform="translate(965 461)" d="m0 0c8.93 5.1 15.6 13.5 18.6 23.5 1.48 10.4 1.36 21.5-4.16 30.6-6.28 8.14-14.7 13.4-24.8 15.4-14.1 1.05-23.2-1.91-34-11-5.94-5.37-9.4-14.1-10.2-22-0.244-11 3.87-21.5 11.3-29.7 11.8-11.2 28.9-13.7 43.4-6.79z" fill="#000204"/>
<path transform="translate(848,491)" d="m0 0c7.95 5.85 14.3 15.1 16 25 0.816 11.3 0.188 21.3-7.25 30.3-8.46 8.77-16.4 12.7-28.7 13.1-12-0.313-20.2-4.97-28.8-13.1-6.26-6.63-8.48-13.8-8.75-22.8 0.2-6.62 1.3-11.7 4.5-17.5 0.436-0.791 0.871-1.58 1.32-2.4 11-18 33.5-22.7 51.7-12.6z" fill="#000204"/>
<path transform="translate(839 592)" d="m0 0c1.22 0.0108 1.22 0.0108 2.46 0.0218 0.834 4.58e-4 1.67 9.16e-4 2.53 0.00139 1.76 0.00302 3.53 0.0109 5.29 0.0233 2.7 0.0182 5.4 0.0205 8.1 0.0203 1.71 0.00492 3.43 0.0107 5.14 0.0176 0.809 0.00111 1.62 0.00223 2.45 0.00337 3.28 0.0277 5.95 0.121 9.08 1.16 3.27 6.54 2.14 16 2.11 23.1 1.46e-4 1.18 2.92e-4 2.36 4.43e-4 3.58-6.93e-4 3.88-0.00846 7.76-0.0163 11.6-0.00242 2.7-0.00334 5.4-0.00429 8.1-0.0031 6.36-0.0113 12.7-0.0213 19.1-0.0112 7.25-0.0167 14.5-0.0217 21.8-0.0104 14.9-0.028 29.8-0.0503 44.7-0.66 0.33-1.32 0.66-2 1-0.8-3.29-1.1-4.71 0-8h-2c-0.33 1.32-0.66 2.64-1 4h-2c-0.33-1.98-0.66-3.96-1-6-0.99-0.33-1.98-0.66-3-1-0.33-0.99-0.66-1.98-1-3 2.48-0.495 2.48-0.495 5-1-1.32-0.33-2.64-0.66-4-1 0.278-1.14 0.278-1.14 0.562-2.31 0.666-2.78 0.666-2.78-0.562-5.69-0.99 0.99-1.98 1.98-3 3-1.88-3.27-2.49-6.28-3-10l-2 2v-2c-2.62 1.05-3.79 1.65-5.25 4.12-0.247 0.619-0.495 1.24-0.75 1.88h3v4h-8c0.506-2.17 1-4 2-6 0.576-7.48-0.426-14.4-2.11-21.6-0.464-2.11-0.925-4.23-1.38-6.35-0.246-1.13-0.492-2.26-0.746-3.42-1.39-6.56-2.63-13.2-3.88-19.7-0.131-0.692-0.262-1.38-0.397-2.1-0.667-3.53-1.33-7.06-1.99-10.6-0.682-3.63-1.37-7.26-2.06-10.9-0.538-2.84-1.07-5.67-1.6-8.51-0.373-1.98-0.752-3.97-1.13-5.95-0.224-1.2-0.448-2.41-0.679-3.65-0.198-1.05-0.396-2.1-0.6-3.19-0.433-3.07-0.635-5.89-0.422-8.99 2.6-2.6 4.4-2.24 7.94-2.25z" fill="#00ACEC"/>
<path transform="translate(909 557)" d="m0 0c1.16-0.00461 1.16-0.00461 2.35-0.00932 0.826 0.00719 1.65 0.0144 2.5 0.0218 1.28 6.87e-4 1.28 6.87e-4 2.59 0.00139 1.8 0.00302 3.61 0.0109 5.41 0.0233 2.77 0.0183 5.53 0.0205 8.3 0.0203 1.75 0.00491 3.51 0.0107 5.26 0.0176 1.25 0.00167 1.25 0.00167 2.52 0.00337 5.84 0.0485 5.84 0.0485 8.07 1.16-1.37 7.88-2.96 15.7-4.63 23.5-0.446 2.09-0.889 4.18-1.33 6.27-1.59 7.51-3.21 15-4.87 22.5-0.836 3.78-1.66 7.57-2.49 11.4-0.406 1.84-0.815 3.69-1.23 5.53-4.41 17.2-4.41 17.2-0.447 33.8h-4c-1.49 0.495-1.49 0.495-3 1-0.733 2.02-0.733 2.02-1 4l-1-2c-0.99 0.99-1.98 1.98-3 3-0.33-0.99-0.66-1.98-1-3-3.3 1.98-6.6 3.96-10 6-1-5-1-5-1-7h-2c0.0348 0.94 0.0348 0.94 0.0703 1.9 0.018 0.817 0.0361 1.63 0.0547 2.48 0.0232 0.812 0.0464 1.62 0.0703 2.46-0.195 2.16-0.195 2.16-2.2 4.16-0.186-1.7-0.186-1.7-0.375-3.44-0.309-1.76-0.309-1.76-0.625-3.56-0.66-0.33-1.32-0.66-2-1-0.548-25.3-1.1-50.7-1.18-76-0.00678-1.87-0.017-3.74-0.0308-5.61-0.0178-2.6-0.0222-5.2-0.0225-7.8-0.00715-0.745-0.0143-1.49-0.0217-2.26 0.0218-5.09 0.178-10.6 2.25-15.3 2.66-1.81 4.82-2.25 8-2.24z" fill="#00ACEC"/>
<path transform="translate(959 557)" d="m0 0c0.761 0.00719 1.52 0.0144 2.31 0.0218 0.784 4.58e-4 1.57 9.16e-4 2.38 0.00139 1.66 0.00302 3.32 0.0109 4.99 0.0233 2.53 0.0182 5.07 0.0205 7.6 0.0203 1.62 0.00492 3.23 0.0107 4.85 0.0176 1.13 0.00167 1.13 0.00167 2.29 0.00337 7.59 0.0678 7.59 0.0678 11 1.16 2.07 3.11 2.25 3.75 2.24 7.27 0.00275 0.871 0.0055 1.74 0.00833 2.64-0.00719 0.952-0.0144 1.9-0.0218 2.89 2.92e-4 1.01 5.84e-4 2.01 8.85e-4 3.05-0.0014 3.33-0.017 6.66-0.0326 9.98-0.00373 2.3-0.00658 4.61-0.00858 6.91-0.00764 6.07-0.0273 12.1-0.0494 18.2-0.0204 6.19-0.0296 12.4-0.0397 18.6-0.0215 12.2-0.0556 24.3-0.0977 36.5-0.99-0.495-0.99-0.495-2-1v-8c-1.32-0.33-2.64-0.66-4-1-0.33 0.66-0.66 1.32-1 2-2-3.75-2-3.75-2-6-0.381 1.5-0.381 1.5-0.77 3.04-0.347 1.34-0.695 2.68-1.04 4.03-0.166 0.657-0.331 1.31-0.502 1.99-1.18 4.53-2.75 8.68-4.69 12.9-0.562-0.164-1.12-0.327-1.7-0.496-2.43-0.533-4.57-0.603-7.05-0.566-0.799 0.00902-1.6 0.018-2.42 0.0273-0.603 0.0116-1.21 0.0232-1.83 0.0352-0.0825-0.619-0.165-1.24-0.25-1.88-0.563-2.31-0.563-2.31-2.81-3.38-0.639-0.247-1.28-0.495-1.94-0.75 0.65-1.03 0.65-1.03 1.31-2.09 0.835-1.41 0.835-1.41 1.69-2.85 0.557-0.917 1.11-1.83 1.69-2.78 3.78-9.47-0.15-20.3-2.25-29.9-0.363-1.69-0.726-3.38-1.09-5.07-2.6-12.1-5.29-24.1-8.09-36.2-4.76-20.6-4.76-20.6-4.26-27.1 2.54-2.54 4.13-2.24 7.59-2.25z" fill="#00ACEC"/>
<path transform="translate(1029,1016)" d="m0 0h3c2.12 6.37 2.39 12.3 2.57 19 0.185 5 0.642 9.33 2.43 14 3.49 2.33 4.89 2.5 9 2 4.13-2.71 4.94-6.41 6.09-11 0.906-2.02 0.906-2.02 3-3.3 0.629-0.24 1.26-0.48 1.91-0.727 1.46 2.91 0.972 5.6 0.84 8.81 8.21e-4 2.49 8.21e-4 2.49 2.16 5.19 2.34 0.763 2.34 0.763 5 0 2.12-2 3.9-3.9 5.75-6.12 6.59-7.51 13.9-14.4 24.2-15.9 5.12 0.181 8.8 0.861 12.6 4.44 2.73 4.87 2.42 8.64 2.18 14.1 0.0851 0.824 0.17 1.65 0.258 2.5 4.22 2.81 8.04 2.79 13 2 2.27-2.27 2.78-4.27 3.69-7.3 0.371-1.21 0.371-1.21 0.75-2.45 0.205-0.779 0.41-1.56 0.621-2.36 0.941-1.89 0.941-1.89 2.98-2.72 0.648-0.0567 1.3-0.113 1.96-0.172 0.33 0.33 0.66 0.66 1 1-0.0584 1.79-0.147 3.58-0.25 5.38-0.186 4.42-0.186 4.42 2.38 7.81 3.31 0.934 5.47 1.38 8.88 0.812 3.97-2.88 5.69-6.18 7.94-10.5 2.81-5.39 5.54-8.74 11.1-11.5 2.81-0.375 2.81-0.375 6 0 4.88 3.84 8.46 8.54 9.42 14.7 0.237 4.9 0.236 7.41-2.8 11.4-4.82 3.44-8.81 3.42-14.6 2.88-2.16-0.812-2.16-0.812-4.12-1.75-2.42-1.05-3.35-1.43-5.87-0.559-1.34 0.75-2.68 1.52-4 2.3-3.51 1.76-6.12 1.45-10 1.01-2.01-0.984-4.01-1.98-6-3-2.9 0.217-5.1 1.04-7.81 2.06-5.99 1.76-10.4 1.3-16.2-0.75-3.63-1.19-5.62-1.5-9.19-0.0625-0.571 0.294-1.14 0.588-1.73 0.891-5.42 2.24-11.5 2.05-17.3 2.05-0.741-8.06e-4 -1.48-0.00161-2.25-0.00244-6.58-0.0728-13.7-0.207-19.6-3.27-2.86-1.38-4.86-0.655-7.89 0.0859-0.763 0.371-1.53 0.743-2.31 1.12-4.07 1.33-7.59 1.09-11.7-0.125-1.97-1.38-1.97-1.38-3.88-3-4.06-3.41-7.26-3.53-12.4-3.74-5.08-0.495-8.97-2.75-12.8-6.07-1.46-3.4-0.852-5.65 0.0625-9.19 3.38-6.76 9-9.93 15.9-12.5 3.3-1.2 3.3-1.2 4.5-4.12 0.309-1.18 0.309-1.18 0.625-2.38 0.33-0.33 0.66-0.66 1-1z" fill="#000204"/>
<path transform="translate(557 1e3)" d="m0 0h4c1.15 2.3 1.2 3.79 1.32 6.35 0.0422 0.904 0.0844 1.81 0.128 2.74 0.0585 1.47 0.0585 1.47 0.118 2.98 0.0403 1.01 0.0806 2.02 0.122 3.06 0.285 7.81 0.482 15.6 0.565 23.4 0.0214 1.05 0.0427 2.1 0.0647 3.19 0.0245 5.48-0.08 9.59-3.31 14.3-3.55 2.36-5.23 2.3-9.44 2.31-1.13 0.0168-2.27 0.0335-3.43 0.0508-3.4-0.395-4.55-1.23-7.13-3.36-2.48 0.639-2.48 0.639-5 2-6.27 2.77-12.2 1.94-18.8 0.312-3.11-0.432-5.3 0.683-8.25 1.69-4.98 0.376-9.14-0.392-13.9-1.76-2.67-0.306-3.77 0.513-6.11 1.76-5.37 0.725-10 0.13-15.1-1.69-3.54-1.19-5.29-1.53-8.69 0.0625-7.43 3.47-16.1 1.02-23.6-1.19-4.49-1.22-4.49-1.22-8.94 0.125-6.71 6.82-6.71 6.82-10 15.5 0.502 4.27 2.1 5.51 5.38 8.19 3.68 2.45 7.41 2.31 11.7 2.25 1.07-0.0058 1.07-0.0058 2.15-0.0117 5.29-0.0868 10.1-0.781 15.2-2.24 0.33 1.98 0.66 3.96 1 6-9.4 4.55-20.5 6.13-30.7 3.23-2.06-0.984-2.06-0.984-5.31-3.23-1.42-0.959-1.42-0.959-2.88-1.94-3.46-3.36-4-6.01-4.56-10.8 0.277-8.65 5.72-15.2 11.7-20.9 1.77-1.4 1.77-1.4 3.77-1.4-2-4.62-3.99-7.01-8-10-2-3-2-3-1.88-5.44 1.67-4.88 5.45-7.24 9.88-9.56 4.59-1.39 9.26-1.71 14-1 3.06 2.44 3.06 2.44 5 5 0.33 0.33 0.66 0.66 1 1 0.526 4.41 1.05 9.06-1.12 13.1-1.38 1.62-1.38 1.62-3.88 3.94 5.48 2.94 10.8 3.77 17 3 2.87-1.69 3.73-3.01 4.61-6.2 0.339-1.58 0.642-3.18 0.902-4.78 0.492-2.02 0.492-2.02 2.49-4.02 1.32 0.33 2.64 0.66 4 1v12c4.49 1.75 8.18 2.45 13 2 3.7-2.75 4.06-6.44 5.06-10.7 0.941-2.28 0.941-2.28 3.04-3.59 0.628-0.228 1.26-0.456 1.9-0.691 1.81 1.81 1.38 4.61 1.56 7.06 0.0838 1.1 0.168 2.21 0.254 3.35 0.0606 0.855 0.121 1.71 0.184 2.59 4.46 2.02 7.17 1.95 12 1 0.454-1.22 0.908-2.43 1.38-3.69 0.416-1.09 0.416-1.09 0.84-2.2 0.62-1.67 1.18-3.35 1.72-5.05 1.06-2.06 1.06-2.06 3.19-2.88 0.928-0.0928 0.928-0.0928 1.88-0.188 0.913 4.97 0.913 9.03 0 14 4.14 1.33 9.03 1.98 13 0 1.38-4.14 1.28-8.31 1.34-12.6 0.084-1.99 0.084-1.99 0.658-5.36 2.04-1.46 2.04-1.46 4-2 2.18 2.18 2.1 7.21 2.54 10.3 0.878 5.02 2.47 7.58 6.46 10.7 3.2 0.377 5.11 0.444 8-1-0.00444-0.597-0.00888-1.19-0.0135-1.81-0.0441-6.2-0.0744-12.4-0.0964-18.6-0.0101-2.31-0.0237-4.63-0.041-6.94-0.0242-3.32-0.0356-6.64-0.0444-9.96-0.0103-1.04-0.0206-2.08-0.0313-3.15-1.51e-4 -0.961-3.02e-4 -1.92-4.58e-4 -2.91-0.00444-0.848-0.00888-1.7-0.0135-2.57 0.241-2.06 0.241-2.06 2.24-4.06z" fill="#000204"/>
<path transform="translate(1377 1113)" d="m0 0c1.18 0.00322 2.37 0.00645 3.58 0.00977 1.73-0.0242 1.73-0.0242 3.5-0.0488 8.41-0.00478 16.1 0.412 22.5 6.36 2.93 3.88 3.28 7.49 3.05 12.3-0.997 4.47-3.48 7.48-6.61 10.7 0.763 0.722 1.53 1.44 2.31 2.19 3.55 3.72 5.5 6.07 6.06 11.2-0.526 5-1.95 8.11-5.47 11.7-3.73 2.39-6.93 2.48-11.2 2.51-0.79 0.0189-1.58 0.0378-2.39 0.0573-1.66 0.0364-3.32 0.0636-4.98 0.0821-2.55 0.0286-5.1 0.0837-7.66 0.144-1.61 0.0321-3.23 0.0628-4.84 0.0918-0.767 0.0145-1.53 0.029-2.32 0.0439-1.82 0.0186-3.65-0.0169-5.47-0.0634-1.68-1.68-1.14-3.74-1.15-6.04-0.00638-1.07-0.0128-2.15-0.0193-3.26-0.00111-1.17-0.00223-2.34-0.00337-3.54-0.00333-1.19-0.00666-2.38-0.0101-3.61-0.00507-2.53-0.00741-5.06-0.00725-7.58-0.00219-3.88-0.0203-7.76-0.0393-11.6-0.00293-2.45-0.00492-4.9-0.00586-7.35-0.00719-1.17-0.0144-2.34-0.0218-3.54 0.00308-1.08 0.00615-2.16 0.00932-3.27-0.00143-0.952-0.00285-1.9-0.00432-2.88 0.655-6.05 6.54-4.58 11.2-4.61z" fill="#000204"/>
<path transform="translate(463,1126)" d="m0 0c5.56 4.52 8.04 10 9 17 0.0777 2.16 0.108 4.33 0.0977 6.49-0.00483 1.8-0.00483 1.8-0.00977 3.63-0.0126 1.86-0.0126 1.86-0.0254 3.75-0.00451 1.26-0.00902 2.52-0.0137 3.82-0.0117 3.1-0.0297 6.2-0.0488 9.3h-14c-0.916-3.67-1.07-6.27-1-10 0.0257-4.56-0.0303-9.08-0.312-13.6-0.058-0.962-0.116-1.92-0.176-2.91-0.588-2.83-1.13-3.85-3.51-5.46-3.59-0.333-7 0.287-9.94 2.38-2.19 3.35-2.24 6.5-2.38 10.4-0.0628 1.68-0.0628 1.68-0.127 3.39-0.0393 1.17-0.0786 2.33-0.119 3.54-0.0648 1.77-0.0648 1.77-0.131 3.57-0.106 2.91-0.208 5.83-0.307 8.74-1.98 0.0269-3.96 0.0463-5.94 0.0625-1.1 0.0116-2.2 0.0232-3.34 0.0352-2.72-0.0977-2.72-0.0977-3.72-1.1-0.217-2.03-0.372-4.08-0.5-6.12-0.0825-1.25-0.165-2.49-0.25-3.78-0.0825-1.31-0.165-2.63-0.25-3.98-0.163-2.58-0.33-5.16-0.5-7.74-0.0722-1.15-0.144-2.3-0.219-3.49-0.179-2.96-0.179-2.96-1.28-5.9-5.91-0.593-5.91-0.593-10.9 2.19-3.04 4.14-3.17 8.08-3.38 13.1-0.0419 0.976-0.0838 1.95-0.127 2.96-0.0393 1.01-0.0786 2.01-0.119 3.05-0.0432 1.03-0.0864 2.05-0.131 3.11-0.106 2.53-0.208 5.05-0.307 7.58-2.15 0.0269-4.29 0.0463-6.44 0.0625-1.19 0.0116-2.39 0.0232-3.62 0.0352-2.94-0.0977-2.94-0.0977-3.94-1.1-0.114-2.75-0.164-5.48-0.168-8.23-0.00499-1.25-0.00499-1.25-0.0101-2.52-0.00507-1.76-0.00741-3.52-0.00725-5.29-0.00218-2.69-0.0203-5.38-0.0393-8.07-0.00294-1.71-0.00492-3.42-0.00586-5.13-0.00719-0.802-0.0144-1.6-0.0218-2.43 0.0371-9.12 0.0371-9.12 3.25-12.3 7.81-0.824 7.81-0.824 11.2 1.56 0.577 0.474 1.15 0.949 1.75 1.44 3.37-0.241 4.59-0.588 7-3 7.66-1.06 12.7 0.77 19 5 2.74 0.533 4.35 0.404 6.74-1.09 1.19-0.882 2.36-1.79 3.52-2.72 4.91-3.35 10.5-2.18 15.7-0.191z" fill="#000204"/>
<path transform="translate(588 1110)" d="m0 0c1.48 0.0213 1.48 0.0213 3 0.043 1.49 0.00967 1.49 0.00967 3 0.0195 2.43 0.168 2.43 0.168 3.43 1.17 0.0938 1.84 0.117 3.69 0.114 5.53-7.55e-5 1.18-1.51e-4 2.36-2.29e-4 3.58-0.00516 1.29-0.0103 2.57-0.0156 3.9-0.00141 1.31-0.00283 2.62-0.00429 3.96-0.00382 3.48-0.0137 6.97-0.0247 10.5-0.0102 3.55-0.0148 7.1-0.0198 10.7-0.0107 6.97-0.0278 13.9-0.0488 20.9-1.92 0.0542-3.83 0.0929-5.75 0.125-1.07 0.0232-2.13 0.0464-3.23 0.0703-3-0.194-4.4-0.887-7.02-2.2-1.65 0.761-3.31 1.52-4.95 2.3-4.08 1.39-7.95 0.829-12-0.305-5.9-2.96-10.3-6.4-13.2-12.4-2.21-6.84-1.52-13.9 1.16-20.5 3.16-6.13 7.01-9.67 13.5-12 5.91-1.51 9.22-1.05 14.5 1.91 0.804 0.392 1.61 0.784 2.44 1.19 0.516 0.268 1.03 0.536 1.56 0.812-0.161-0.523-0.322-1.05-0.488-1.59-0.646-3.05-0.682-5.92-0.699-9.04-0.0142-1.15-0.0284-2.29-0.043-3.48 0.299-3.76 0.983-4.79 4.8-5.13z" fill="#000204"/>
<path transform="translate(1200,1112)" d="m0 0c6.16 4.98 9.75 12.3 13.8 19 0.593 0.954 1.19 1.91 1.8 2.89 0.529 0.864 1.06 1.73 1.6 2.62 2 2.83 4.27 5.12 6.77 7.51 0.0198-0.868 0.0396-1.74 0.0601-2.63 0.078-3.22 0.165-6.43 0.257-9.65 0.0383-1.39 0.0732-2.79 0.104-4.18 0.0456-2 0.105-4 0.164-6 0.0314-1.2 0.0628-2.41 0.0952-3.65 0.319-2.89 0.319-2.89 2.32-4.89 2.57-0.23 2.57-0.23 5.56-0.188 1.49 0.00967 1.49 0.00967 3 0.0195 2.43 0.168 2.43 0.168 3.43 1.17 0.0937 1.75 0.117 3.5 0.114 5.25-7.55e-5 1.12-1.51e-4 2.24-2.29e-4 3.4-0.00516 1.22-0.0103 2.44-0.0156 3.7-0.00141 1.24-0.00283 2.48-0.00429 3.76-0.00466 3.31-0.0137 6.61-0.0247 9.92-0.0102 3.37-0.0148 6.74-0.0198 10.1-0.0111 6.62-0.0278 13.2-0.0488 19.9-4.8 0.599-9.22 0.834-14 0-3.38-2.76-5.03-6.15-7-10-1.14-1.86-2.29-3.72-3.46-5.57-1.71-2.81-3.4-5.63-5.09-8.45-0.548-0.902-1.1-1.8-1.66-2.73-0.49-0.816-0.979-1.63-1.48-2.47-0.432-0.584-0.864-1.17-1.31-1.77h-2c-0.33 10.2-0.66 20.5-1 31h-13c-1.67-1.67-1.16-3.72-1.19-6.02-0.0161-1.07-0.0321-2.14-0.0487-3.25-0.0442-4.9-0.0855-9.81-0.109-14.7-0.0166-2.59-0.0439-5.18-0.082-7.78-0.0546-3.72-0.0766-7.45-0.0913-11.2-0.0227-1.16-0.0453-2.33-0.0687-3.52 0.00285-1.08 0.0057-2.16 0.00864-3.27-0.00809-0.95-0.0162-1.9-0.0245-2.88 0.608-2.4 0.608-2.4 2.93-4.2 3.54-1.59 5.84-1.75 9.68-1.2z" fill="#000204"/>
<path transform="translate(176,1125)" d="m0 0c0.66 0.66 1.32 1.32 2 2 2.57 0.648 2.57 0.648 5 1v-2c3.63-2.33 6.77-2.16 11-2 2.01 5.02 2.28 9.27 2.23 14.6-4.58e-4 0.806-9.16e-4 1.61-0.00139 2.44-0.00301 1.69-0.0108 3.39-0.0233 5.08-0.0183 2.59-0.0205 5.19-0.0203 7.78-0.00491 1.65-0.0107 3.3-0.0176 4.95-0.00111 0.775-0.00223 1.55-0.00337 2.35-0.0283 3.2-0.145 5.77-1.16 8.83-11.5 0.554-11.5 0.554-17-3v2c-4.91 2.78-9.68 2.13-15 1-5.6-2.02-9.88-5.98-13-11-2.79-6.89-2.71-14.5-0.0586-21.5 3.39-6.74 7.57-10.1 14.5-12.9 4.31-0.757 7.28-0.497 11.6 0.375z" fill="#000204"/>
<path transform="translate(1442 1113)" d="m0 0c1.25-0.04 2.49-0.0799 3.78-0.121 3.29 0.559 3.29 0.559 4.84 2.7 1.51 2.99 2.67 5.94 3.77 9.1 0.43 1.23 0.86 2.47 1.3 3.74 0.457 1.34 0.914 2.67 1.37 4.01 0.232 0.679 0.464 1.36 0.703 2.06 1.46 4.27 2.89 8.54 4.32 12.8 0.738 2.21 1.48 4.42 2.22 6.63 0.476 1.42 0.951 2.85 1.43 4.27 0.22 0.652 0.44 1.3 0.666 1.98 1.14 3.43 1.95 6.68 2.66 10.2h-15c-0.99-2.64-1.98-5.28-3-8h-20c-0.66 2.64-1.32 5.28-2 8h-14c-1-2-1-2 0.0923-5.8 0.558-1.65 1.12-3.3 1.7-4.94 0.3-0.879 0.601-1.76 0.91-2.66 0.641-1.87 1.28-3.74 1.93-5.6 0.977-2.82 1.94-5.64 2.9-8.46 10.2-29.8 10.2-29.8 19.4-30z" fill="#000204"/>
<path transform="translate(1131 1112)" d="m0 0c1.57-0.0561 1.57-0.0561 3.18-0.113 3.79 0.548 4.55 1.47 6.95 4.43 1.17 2.68 2.17 5.27 3.09 8.03 0.273 0.785 0.547 1.57 0.828 2.38 0.87 2.51 1.72 5.02 2.58 7.53 0.573 1.65 1.15 3.31 1.72 4.96 8.78 25.3 8.78 25.3 8.78 31.1-2.29 0.0808-4.58 0.139-6.88 0.188-1.91 0.0522-1.91 0.0522-3.87 0.105-1.08-0.0967-2.15-0.193-3.26-0.293-2-3-2-3-3-9h-19c-0.99 2.97-1.98 5.94-3 9h-14c-1.18-3.53-0.766-4.42 0.415-7.87 0.334-0.988 0.668-1.98 1.01-2.99 0.371-1.07 0.741-2.13 1.12-3.23 0.561-1.64 0.561-1.64 1.13-3.32 0.794-2.32 1.59-4.64 2.39-6.96 1.23-3.55 2.44-7.1 3.65-10.7 0.772-2.25 1.54-4.5 2.32-6.76 0.547-1.6 0.547-1.6 1.11-3.22 0.343-0.991 0.687-1.98 1.04-3 0.301-0.87 0.601-1.74 0.911-2.64 2.42-6.4 3.81-7.51 10.8-7.67z" fill="#000204"/>
<path transform="translate(1498 1113)" d="m0 0c1.28 0.00902 2.56 0.018 3.88 0.0273 1.48 0.0174 1.48 0.0174 2.99 0.0352 5.06 8.79 8.08 18.4 11.3 27.9 0.95 2.82 1.91 5.63 2.88 8.44 0.613 1.8 1.22 3.61 1.84 5.41 0.285 0.834 0.571 1.67 0.865 2.53 1.41 4.21 2.55 8.25 3.12 12.7-2.29 0.0269-4.58 0.0464-6.88 0.0625-1.28 0.0116-2.55 0.0232-3.87 0.0352-3.26-0.0977-3.26-0.0977-5.26-1.1-0.731-2.31-1.4-4.65-2-7-6.71-0.88-13.2-1.11-20-1-0.66 2.97-1.32 5.94-2 9h-14c-1-2-1-2-0.554-3.95 0.406-1.21 0.406-1.21 0.819-2.44 0.308-0.924 0.616-1.85 0.933-2.8 0.347-1.01 0.694-2.02 1.05-3.06 0.353-1.04 0.707-2.08 1.07-3.16 2.86-8.36 5.81-16.7 8.82-25 0.489-1.35 0.977-2.71 1.46-4.06 0.685-1.91 1.38-3.81 2.08-5.71 0.399-1.1 0.799-2.2 1.21-3.33 2.09-4.68 5.57-3.59 10.2-3.55z" fill="#000204"/>
<path transform="translate(839 1e3)" d="m0 0c2.12 0.375 2.12 0.375 4 1 0.815 2.9 1.17 5.58 1.3 8.58 0.04 0.901 0.0799 1.8 0.121 2.73 0.0386 0.964 0.0772 1.93 0.117 2.92 0.043 0.993 0.086 1.99 0.13 3.01 0.136 3.17 0.267 6.34 0.397 9.51 0.0914 2.15 0.183 4.3 0.275 6.45 0.225 5.27 0.445 10.5 0.662 15.8 2.93 0.976 4.95 1.16 8 1.19 0.866 0.0142 1.73 0.0284 2.62 0.043 2.64-0.0679 2.64-0.0679 5.38-2.23 0.945-2.58 0.945-2.58 1.56-5.5 1.23-5.3 1.23-5.3 3.44-7.5 1.32 0.33 2.64 0.66 4 1-0.33 3.96-0.66 7.92-1 12 4.82 1.94 4.82 1.94 9.62 2.31 0.755 0.0168 1.51 0.0335 2.29 0.0508 2.69-0.469 3.48-1.17 5.09-3.36 0.856-2.55 1.45-5.1 2.06-7.72 0.941-2.28 0.941-2.28 3.04-3.59 0.628-0.228 1.26-0.456 1.9-0.691 1.2 2.39 1.01 3.72 0.875 6.38-0.00912 2.83 0.0856 4.52 1.12 7.19 3.26 2.34 6.05 1.75 10 1.44 0.66-0.33 1.32-0.66 2-1 1.07-3.3 1.93-6.64 2.8-10 1.2-3 1.2-3 3.33-4.41 0.616-0.195 1.23-0.389 1.87-0.59 1.44 2.88 1.09 5.42 1.06 8.62-0.00902 1.19-0.018 2.38-0.0273 3.6-0.0116 0.915-0.0232 1.83-0.0352 2.77 1.58 0.196 3.17 0.382 4.75 0.562 0.882 0.104 1.76 0.209 2.67 0.316 2.85 0.258 2.85 0.258 6.58-0.879v-18c1.32-0.66 2.64-1.32 4-2 2.16 3.24 2.5 5.14 3.06 8.94 0.677 5.1 0.677 5.1 1.94 10.1 4.19 2.54 8.26 2.06 13 2-0.00444-0.609-0.00888-1.22-0.0135-1.85-0.0441-6.33-0.0744-12.7-0.0964-19-0.0101-2.36-0.0237-4.73-0.041-7.09-0.0242-3.39-0.0356-6.78-0.0444-10.2-0.0103-1.06-0.0206-2.12-0.0313-3.22-1.51e-4 -0.981-3.02e-4 -1.96-4.58e-4 -2.97-0.00444-0.866-0.00888-1.73-0.0135-2.62 0.241-2.1 0.241-2.1 2.24-4.1 2.12 0.375 2.12 0.375 4 1 1.09 9.92 1.22 19.8 1.24 29.8 0.00985 2.75 0.041 5.49 0.0723 8.24 0.00652 1.76 0.0118 3.51 0.0156 5.27 0.0123 0.817 0.0247 1.63 0.0374 2.47-0.0131 3.32-0.106 5.77-1.71 8.71-3.21 2.98-6.79 3.44-11 3.91-3.55-0.367-4.56-0.83-7.44-2.62-2.66-1.48-3.62-1.9-6.6-1.09-1.7 0.774-3.38 1.56-5.06 2.37-4.84 1.86-9.4 0.498-14.3-0.719-2.31-0.512-2.31-0.512-4.56 0.625-3.57 1.41-6.92 1.6-10.7 1.06-0.928-0.557-1.86-1.11-2.81-1.69-4.41-1.82-6.88-0.432-11.3 0.973-4.39 1.08-8.52 0.799-12.9-0.285-0.99-0.66-1.98-1.32-3-2-2.63 0.321-4.63 0.814-7 2-2.6 0.178-5.15 0.278-7.75 0.312-0.704 0.029-1.41 0.058-2.13 0.0879-5.12 0.0619-8.14-0.899-12.1-4.4-5.5-11.4-3.08-30.7-3.19-43.2-0.0131-0.855-0.0261-1.71-0.0396-2.59-0.00297-2.08 0.102-4.15 0.227-6.22l2-2z" fill="#000204"/>
<path transform="translate(92.6 1113)" d="m0 0c1.15-0.02 2.3-0.04 3.49-0.0605 6.97 0.00397 13 0.534 18.9 4.5 4.14 4.41 5.8 8.29 6.25 14.3-0.381 5.62-1.87 9.25-5.79 13.3-3.91 3.14-7.91 3.32-12.8 3.62-5.27-0.0659-5.27-0.0659-9.69 1.75-0.157 1.49-0.251 2.98-0.316 4.47-0.0419 0.899-0.0838 1.8-0.127 2.72-0.059 1.42-0.059 1.42-0.119 2.87-0.0432 0.949-0.0864 1.9-0.131 2.88-0.106 2.35-0.208 4.71-0.307 7.06-2.31 0.0269-4.62 0.0463-6.94 0.0625-1.29 0.0116-2.58 0.0232-3.9 0.0352-3.16-0.0977-3.16-0.0977-4.16-1.1-0.109-1.64-0.149-3.29-0.161-4.93-0.00961-1.05-0.0192-2.1-0.0291-3.19-0.00425-1.14-0.0085-2.29-0.0129-3.47-0.0057-1.17-0.0114-2.34-0.0173-3.54-0.00947-2.48-0.016-4.95-0.0198-7.43-0.00971-3.8-0.0407-7.59-0.0723-11.4-0.00653-2.4-0.0118-4.8-0.0156-7.2-0.0123-1.14-0.0247-2.28-0.0374-3.46 0.0045-1.59 0.0045-1.59 0.00909-3.2-0.00365-0.932-0.00729-1.86-0.011-2.82 1.22-7.82 9.95-5.84 16-5.8z" fill="#000204"/>
<path transform="translate(346 1128)" d="m0 0c5.03 3.69 8.66 9.26 9.86 15.4 0.563 6.74 0.424 12.1-3 18-5.5 6.21-10.4 9.62-18.8 10.3-7.04-0.202-13.8-2.79-19.2-7.31-4.82-6.34-6.79-12-6-20 1.35-6.02 4.29-11 9-15 9.28-5.32 18.5-6.66 28.1-1.36z" fill="#000204"/>
<path transform="translate(1303 1115)" d="m0 0c4.33 3.73 7.3 6.47 8.5 12.2 0.0619 1.03 0.124 2.06 0.188 3.12-5.72 0.233-10.6 0.123-16-2-0.33-0.99-0.66-1.98-1-3-4.45 0.495-4.45 0.495-9 1v7c0.522 0.17 1.04 0.34 1.58 0.516 1.57 0.518 3.14 1.04 4.71 1.58 1.84 0.615 3.69 1.2 5.55 1.75 6.5 2.07 10.4 4.37 14.2 10.2 1.74 3.49 1.44 7.19 1 11-1.81 5.31-5.09 8.4-10 11-7.67 2.84-14.3 2.77-21.9-0.0234-4.53-2.1-7.35-4.82-10.1-9.04-1-2.94-1-2.94-0.363-5.05 1.36-1.88 1.36-1.88 3.57-2.67 7.11-0.756 7.11-0.756 10.7 2.1 0.681 0.887 1.36 1.77 2.06 2.69 3.64 2.43 5.71 2.16 10 2 0.453-4.48 0.453-4.48-1.02-8.55-3.52-2.58-7.8-3.67-11.9-5.02-5.66-1.98-10.2-4.48-13.5-9.74-1.09-5.2-0.283-9.22 2-13.9 7.77-8.97 19.9-12.7 30.8-7.12z" fill="#000204"/>
<path transform="translate(641 1128)" d="m0 0c5.33 5.85 8.3 12.2 8.75 20.2-0.188 2.62-0.188 2.62-1.19 3.62-2 0.158-4 0.251-6 0.316-1.21 0.0419-2.43 0.0838-3.68 0.127-1.28 0.0393-2.56 0.0786-3.88 0.119-1.92 0.0648-1.92 0.0648-3.89 0.131-3.18 0.106-6.37 0.209-9.55 0.307v4c2.78 1.39 4.92 1.18 8 1 0.565-0.331 1.13-0.663 1.71-1 3.3-1.44 6.51-1.21 10-1.12 1.05 0.0135 1.05 0.0135 2.11 0.0273 1.71 0.0235 3.42 0.0593 5.14 0.0977-2.04 5.99-4.66 9.53-10 13-6.73 2.8-13.9 3.05-20.8 0.75-6.06-3.26-10.9-5.96-13.2-12.8-1.5-7.39-1.67-14.3 2-21 4.36-6.25 8.71-9.91 16.2-11.8 6.26-0.308 13.1 0.0407 18.2 4z" fill="#000204"/>
<path transform="translate(512 1127)" d="m0 0c6.47 5.56 9.53 11 11.7 19.3 0.168 2.78 0.168 2.78 0 5-1.86 1.86-4.95 1.24-7.44 1.32-1.96 0.0628-1.96 0.0628-3.96 0.127-1.39 0.0398-2.78 0.0795-4.17 0.119-1.39 0.0432-2.79 0.0868-4.18 0.131-3.42 0.106-6.84 0.209-10.3 0.307v3c2.49 1.24 4.23 1.13 7 1.12 1.33 0.00387 1.33 0.00387 2.69 0.00781 2.34 0.0185 2.34 0.0185 4.31-1.13 2.04-0.0707 4.08-0.0842 6.12-0.0625 1.1 0.00902 2.19 0.018 3.32 0.0273 1.26 0.0174 1.26 0.0174 2.55 0.0352 0.676 2.27 0.676 2.27 1 5-2.65 4.68-7 7.32-12 8.94-7.68 1.86-13.8 1.21-21-1.94-4.94-3.07-7.9-7.37-9.59-13-1.63-8.18 0.00958-15.7 4.22-22.8 8.21-7.78 19.3-10.9 29.7-5.56z" fill="#000204"/>
<path transform="translate(798 1127)" d="m0 0c6.48 5.74 10.2 11.9 11.8 20.4v5c-9.57 0.33-19.1 0.66-29 1-0.33 1.32-0.66 2.64-1 4 2.1 0.027 4.21 0.0464 6.31 0.0625 1.17 0.0116 2.34 0.0232 3.55 0.0352 3.17 0.0513 3.17 0.0513 6.14-1.1 2.06-0.069 4.13-0.0847 6.19-0.0625 1.63 0.0135 1.63 0.0135 3.29 0.0273 0.831 0.0116 1.66 0.0232 2.52 0.0352-0.0719 3.02-0.382 5.23-2.31 7.63-6.3 5.8-12.7 7.68-21.2 7.5-7.54-0.802-12.1-4.09-16.9-9.78-3.81-5.32-4.28-11-3.6-17.3 1.83-7.64 5.38-12.8 12-17 7.3-3.8 14.8-4.01 22.2-0.438z" fill="#000204"/>
<path transform="translate(272 1129)" d="m0 0c4.2 4.11 6.37 7.98 7.81 13.8v9c-9.24 0.33-18.5 0.66-28 1-0.33 0.99-0.66 1.98-1 3 3.3 2.2 3.79 2.2 7.5 1.69 1.16-0.149 1.16-0.149 2.34-0.301 2.33-0.364 2.33-0.364 5.16-1.39 2.06-0.069 4.13-0.0847 6.19-0.0625 1.63 0.0135 1.63 0.0135 3.29 0.0273 0.831 0.0116 1.66 0.0232 2.52 0.0352-0.233 4.88-1.55 7.46-5.06 10.7-5.46 3.73-12.4 5.05-18.9 4.32-6.54-1.77-12.2-4.56-16.3-10.1-3.48-6.06-3.28-12.1-2.69-18.9 0.924-3.01 2.22-5.41 4-8 0.598-0.908 1.2-1.82 1.81-2.75 9.17-9.43 21-9.33 31.4-2z" fill="#000204"/>
<path transform="translate(959 1127)" d="m0 0c4.7 3.32 6.7 6.59 9.44 11.7 0.495 6.43 0.495 6.43 1 13-9.57 0.33-19.1 0.66-29 1v3c3.41 2.28 4.16 2.16 8.06 1.69 0.878-0.0993 1.76-0.199 2.66-0.301 2.3-0.277 2.3-0.277 4.28-1.39 1.69-0.0953 3.37-0.13 5.06-0.125 1.35-0.00387 1.35-0.00387 2.72-0.00781 2.21 0.133 2.21 0.133 3.21 1.13 0.5 2.19 0.5 2.19 0 5-4.41 5.37-10.4 8.42-17.2 9.28-7.19 0.297-12.9-1.6-18.6-6.03-4.39-4.13-5.97-7.67-6.46-13.6-0.206-7.85 0.675-12.5 4.9-19.2 8.37-8.59 19.3-11 29.9-5.16z" fill="#000204"/>
<path transform="translate(718 1022)" d="m0 0c2.51 1.82 3.54 3.83 5.06 6.5-0.892 0.098-1.78 0.196-2.7 0.297-1.17 0.15-2.34 0.299-3.55 0.453-1.74 0.209-1.74 0.209-3.52 0.422-3.62 0.927-4.95 1.93-7.23 4.83-1.08 2.4-1.08 2.4-1 5 1.62 3.49 2.76 4.84 6 7 1.93 0.274 1.93 0.274 4.01 0.195 0.757-0.00645 1.51-0.0129 2.29-0.0195 0.786-0.0168 1.57-0.0335 2.38-0.0508 1.2-0.0135 1.2-0.0135 2.42-0.0273 1.97-0.0235 3.93-0.0594 5.9-0.0977 0.495 1.98 0.495 1.98 1 4-10.9 6.72-22.7 7.26-35.2 7.31-1.49 0.00822-1.49 0.00822-3.01 0.0166-7.17-0.0712-7.17-0.0712-10.5-1.4-3.17-1.25-4.27-0.241-7.34 1.07-2.33 0.0432-4.67 0.0402-7 0-3.7 0.0846-3.7 0.0846-7 1-2.62 2.99-3.65 6.3-5 10-3.81 4.97-7.97 6.87-14 8-8.51 0.815-16.6 0.685-24-4-3.53-3.24-6.85-6.67-7.17-11.6-0.0645-10.4-0.0645-10.4 2.17-15.4 1.65-0.33 3.3-0.66 5-1 0.772 4.34 0.984 8.27 0.812 12.7-0.0787 4.22-0.0787 4.22 1.94 7.88 0.742 0.474 1.49 0.949 2.25 1.44 0.544 0.353 1.09 0.706 1.65 1.07 3.37 1.33 6.66 1.26 10.2 1.24 0.695 0.0161 1.39 0.0322 2.11 0.0488 4.75 0.00447 8.02-0.789 12-3.36 4.99-8.48 2.84-16.8 1.24-26-0.0799-0.982-0.16-1.96-0.242-2.98 0.66-0.66 1.32-1.32 2-2h3c0.433 1.01 0.866 2.02 1.31 3.06 0.275 0.634 0.549 1.27 0.832 1.92 0.558 1.31 1.1 2.64 1.62 3.97 1.39 3.5 2.02 4.9 5.24 7.05 2.18 0.353 2.18 0.353 4.5 0.312 1.16 0.0251 1.16 0.0251 2.34 0.0508 2.76-0.465 3.52-1.1 5.16-3.36 1.01-2.72 1.01-2.72 1.69-5.69 0.251-0.994 0.503-1.99 0.762-3.01 0.182-0.759 0.364-1.52 0.551-2.3 1.66-0.382 3.32-0.714 5-1 1 1 1 1 1.1 3.72-0.0116 1.1-0.0232 2.2-0.0352 3.34-0.00902 1.1-0.018 2.21-0.0273 3.35-0.0116 0.855-0.0232 1.71-0.0352 2.59 3.27 1.95 5.71 2.24 9.5 2.19 1.41-0.00967 1.41-0.00967 2.84-0.0195 2.36-0.149 4.39-0.501 6.66-1.17-0.639-0.66-1.28-1.32-1.94-2-2.49-3.62-3.26-6.67-3.06-11 0.851-4.15 2.24-7.15 5.06-10.3 4.9-2.81 10.2-5.16 15.9-4.19z" fill="#000204"/>
<path transform="translate(883,1124)" d="m0 0c2.38 2.5 2.38 2.5 4 5 2.72-1.01 4.92-1.94 7.25-3.69 4.08-1.95 7.46-1.54 11.8-0.312 4.77 3.06 7.77 6.81 10 12 0.395 2.76 0.604 5.15 0.609 7.9 0.0165 0.723 0.0331 1.45 0.0501 2.19 0.0481 2.28 0.0698 4.56 0.0905 6.85 0.0282 1.56 0.0581 3.12 0.0898 4.67 0.0735 3.8 0.123 7.59 0.16 11.4-2.15 0.0269-4.29 0.0463-6.44 0.0625-1.19 0.0116-2.39 0.0232-3.62 0.0352-2.94-0.0977-2.94-0.0977-3.94-1.1-0.133-1.62-0.203-3.25-0.246-4.88-0.0329-1-0.0657-2.01-0.0996-3.04-0.0605-2.11-0.118-4.22-0.172-6.34-0.188-5.56-0.466-10.5-2.48-15.7-3.57-1.78-7.04-1.25-10.8-0.25-2.31 1-2.31 1-2.8 2.95-0.467 2.81-0.602 5.54-0.699 8.38-0.0419 1.16-0.0838 2.32-0.127 3.52-0.059 1.81-0.059 1.81-0.119 3.66-0.0432 1.22-0.0864 2.44-0.131 3.7-0.106 3.02-0.208 6.03-0.307 9.05-2.15 0.0269-4.29 0.0463-6.44 0.0625-1.19 0.0116-2.39 0.0232-3.62 0.0352-2.94-0.0977-2.94-0.0977-3.94-1.1-0.126-2.91-0.189-5.8-0.203-8.71-0.0057-0.877-0.0114-1.75-0.0173-2.66-0.00947-1.86-0.016-3.72-0.0198-5.58-0.00969-2.84-0.0407-5.69-0.0723-8.53-0.00653-1.81-0.0118-3.61-0.0156-5.42-0.0123-0.851-0.0247-1.7-0.0374-2.58 0.0133-3.53 0.0231-5.88 1.7-9.03 3.17-2.84 6.59-2.99 10.7-2.49z" fill="#000204"/>
<path transform="translate(821 1125)" d="m0 0c0.896 0.0142 1.79 0.0284 2.71 0.043 1.35 0.00967 1.35 0.00967 2.72 0.0195 2.21 0.168 2.21 0.168 3.21 1.17 0.159 2.22 0.251 4.44 0.316 6.66 0.0208 0.664 0.0416 1.33 0.063 2.01 0.0656 2.13 0.124 4.26 0.183 6.39 0.0432 1.44 0.0868 2.88 0.131 4.32 0.107 3.54 0.209 7.08 0.307 10.6 3.46 1.07 6.64 1.1 10.2 1.06 1.62-0.0135 1.62-0.0135 3.27-0.0273 1.23-0.0174 1.23-0.0174 2.48-0.0352 0.0198-0.898 0.0396-1.8 0.0601-2.72 0.078-3.33 0.165-6.66 0.257-9.99 0.0383-1.44 0.0732-2.88 0.104-4.32 0.0456-2.07 0.104-4.14 0.164-6.21 0.0314-1.25 0.0628-2.49 0.0952-3.78 0.319-2.98 0.319-2.98 2.32-4.98 2.57-0.23 2.57-0.23 5.56-0.188 1.49 0.00967 1.49 0.00967 3 0.0195 2.43 0.168 2.43 0.168 3.43 1.17 0.0979 1.35 0.128 2.7 0.129 4.04 0.00315 0.858 0.0063 1.72 0.00955 2.6-0.00202 0.932-0.00405 1.86-0.00613 2.83 9.57e-4 0.951 0.00191 1.9 0.0029 2.88 6.82e-4 2.01-0.00117 4.03-0.00534 6.04-0.00535 3.09-5.53e-5 6.19 0.00635 9.28-6.61e-4 1.95-0.00194 3.9-0.00391 5.86 0.00202 0.932 0.00405 1.86 0.00613 2.83-0.00473 1.29-0.00473 1.29-0.00955 2.6-7.96e-4 0.759-0.00159 1.52-0.00241 2.3-0.127 1.75-0.127 1.75-1.13 2.75-1.96 0.125-3.92 0.176-5.88 0.188-1.6 0.0213-1.6 0.0213-3.24 0.043-2.88-0.23-2.88-0.23-5.88-2.23-0.521 0.32-1.04 0.639-1.58 0.969-5.16 2.2-11 1.73-16.4 1.03-4.65-2.03-7.25-4.82-9.94-9.06-3.67-10.2-3.16-23.4-1.06-33.9 2-2 2-2 4.35-2.23z" fill="#000204"/>
<path transform="translate(1327 1113)" d="m0 0c1.92 0.00616 1.92 0.00616 3.88 0.0125 1.02 6.87e-4 1.02 6.87e-4 2.07 0.00139 1.44 0.00302 2.89 0.0109 4.33 0.0233 2.22 0.0183 4.43 0.0205 6.65 0.0203 10.9 0.0381 10.9 0.0381 12 1.19 0.0721 1.69 0.0839 3.38 0.0625 5.06-0.00902 0.919-0.018 1.84-0.0273 2.79-0.0116 0.71-0.0232 1.42-0.0352 2.15-1.93 0.0909-1.93 0.0909-3.9 0.184-1.68 0.0844-3.36 0.169-5.04 0.254-1.28 0.059-1.28 0.059-2.58 0.119-0.809 0.0419-1.62 0.0838-2.45 0.127-0.749 0.0367-1.5 0.0733-2.27 0.111-1.79 0.023-1.79 0.023-2.77 1.21-0.232 1.51-0.412 3.04-0.562 4.56-0.0838 0.826-0.168 1.65-0.254 2.5-0.0606 0.638-0.121 1.28-0.184 1.93 1.14 0.0606 2.29 0.121 3.46 0.184 1.49 0.0844 2.98 0.169 4.47 0.254 0.755 0.0393 1.51 0.0786 2.29 0.119 5.66 0.33 5.66 0.33 6.78 1.44 0.0718 1.52 0.0839 3.04 0.0625 4.56-0.00902 0.826-0.018 1.65-0.0273 2.5-0.0116 0.638-0.0232 1.28-0.0352 1.93-0.892 0.0606-1.78 0.121-2.7 0.184-1.17 0.0838-2.34 0.168-3.55 0.254-1.16 0.0812-2.32 0.162-3.52 0.246-3.39 0.252-3.39 0.252-7.23 1.32v10c2.04 0.0909 2.04 0.0909 4.12 0.184 1.77 0.0844 3.54 0.169 5.32 0.254 0.898 0.0393 1.8 0.0786 2.72 0.119 0.854 0.0419 1.71 0.0838 2.59 0.127 0.791 0.0367 1.58 0.0733 2.4 0.111 1.86 0.205 1.86 0.205 2.86 1.21 0.0718 1.52 0.0839 3.04 0.0625 4.56-0.00902 0.826-0.018 1.65-0.0273 2.5-0.0116 0.638-0.0232 1.28-0.0352 1.93-4.68 0.0247-9.36 0.0428-14 0.0549-1.59 0.00504-3.19 0.0119-4.78 0.0205-2.29 0.0121-4.57 0.0178-6.86 0.0222-0.717 0.00516-1.43 0.0103-2.17 0.0156-1.72 1.96e-4 -3.43-0.0514-5.14-0.113-1.66-1.66-1.14-3.66-1.15-5.95-0.00638-1.05-0.0128-2.11-0.0193-3.2-0.00111-1.15-0.00223-2.3-0.00337-3.48-0.00333-1.17-0.00666-2.34-0.0101-3.55-0.00507-2.48-0.00741-4.96-0.00725-7.44-0.00219-3.81-0.0203-7.62-0.0393-11.4-0.00293-2.4-0.00492-4.81-0.00586-7.21-0.00719-1.15-0.0144-2.29-0.0218-3.47 0.00308-1.06 0.00615-2.12 0.00932-3.21-0.00143-0.934-0.00285-1.87-0.00432-2.83 0.41-3.73 1.7-4.2 5.3-4.49z" fill="#000204"/>
<path transform="translate(1e3 1127)" d="m0 0c4.42 3.73 6.33 7.49 8 13-2.08-0.114-4.17-0.242-6.25-0.375-1.16-0.0696-2.32-0.139-3.52-0.211-3.01-0.385-4.63-1.02-7.23-2.41-2.33-0.0777-4.67-0.0897-7 0-0.33 0.99-0.66 1.98-1 3 0.824 0.218 0.824 0.218 1.66 0.44 2.52 0.681 5.02 1.4 7.52 2.12 0.864 0.228 1.73 0.455 2.62 0.689 5.35 1.58 8.46 3.18 11.4 8.02 1.72 3.65 1.7 6.83 0.812 10.7-1.69 3.25-3.88 5.42-7.16 7.13-6.91 2.12-16.1 2.42-22.9-0.402-2.99-2-5.42-4.19-7.96-6.73-0.125-3.12-0.125-3.12 0-6 5.39-1.26 8.57-0.706 13.7 1.23 3.41 1.15 6.72 1.44 10.3 1.77-0.47-2.48-0.47-2.48-2-5-2.49-1.1-4.65-1.87-7.25-2.56-6.13-1.7-11.9-3.39-15.4-9.19-0.538-4.66 0.962-7.47 3.62-11.2 7.5-8.32 18.4-8.97 28-4z" fill="#000204"/>
<path transform="translate(686 1128)" d="m0 0c4.46 4.57 4.46 4.57 4.62 8.75-0.0412 0.928-0.0825 1.86-0.125 2.81-9.21-0.679-9.21-0.679-12.6-2.06-3.51-1.38-6.62-1.06-10.4-0.938 0.33 0.99 0.66 1.98 1 3 1.73 0.858 1.73 0.858 3.86 1.36 0.786 0.229 1.57 0.459 2.38 0.695 1.65 0.458 3.31 0.907 4.97 1.34 5.22 1.55 7.97 3.2 11 7.79 1.54 3.33 1.82 6.28 0.836 9.81-2.78 4.69-5.8 7.31-11 9-7.37 1.37-14.5 1.83-21-2.26-3.26-2.52-4.78-4.04-5.99-8.05 0-2.69 0-2.69 1-3.69 6.25-0.612 10.5-0.0254 16 3 3.25 0.252 3.25 0.252 6 0-0.495-2.47-0.495-2.47-1-5-1.01-0.315-2.03-0.629-3.07-0.953-1.35-0.432-2.7-0.864-4.05-1.3-0.665-0.205-1.33-0.41-2.02-0.621-4.47-1.45-8.08-3.26-11.9-6.13-1.65-3.31-1.76-6.45-1-10 2.47-3.98 5.43-7.1 9.5-9.44 0.825-0.186 1.65-0.371 2.5-0.562 1.05-0.247 2.1-0.495 3.19-0.75 6.23-0.409 12.3 0.144 17.3 4.19z" fill="#000204"/>
<path transform="translate(1293,544)" d="m0 0c2.93 2.71 4.82 5.16 6.55 8.75 0.448 0.928 0.896 1.86 1.36 2.81 0.463 0.989 0.927 1.98 1.4 3 0.722 1.53 0.722 1.53 1.46 3.09 3.01 6.47 5.83 13 8.35 19.7 0.283 0.732 0.565 1.46 0.857 2.22 1.94 5.37 2.96 10.7 3.02 16.5-0.33 0.33-0.66 0.66-1 1-0.234 2.02-0.413 4.04-0.562 6.06-0.0838 1.1-0.168 2.21-0.254 3.35-0.0909 1.28-0.0909 1.28-0.184 2.59-0.66-0.66-1.32-1.32-2-2 0.0234-2.16 0.0234-2.16 0.375-4.62 0.111-0.817 0.222-1.63 0.336-2.48 0.0954-0.626 0.191-1.25 0.289-1.9h-4c0.33 0.701 0.66 1.4 1 2.12 1.09 3.14 1.15 5.58 1 8.88-1.32-1.32-2.64-2.64-4-4-0.145 2.88-0.145 2.88 0.625 5.06 0.124 0.639 0.247 1.28 0.375 1.94-0.99 0.99-0.99 0.99-2 2-6-8.8-6-8.8-6-13h-2v-2c-0.99-0.33-1.98-0.66-3-1 0.0348-0.785 0.0696-1.57 0.105-2.38 0.166-6.44-0.0741-10.9-3.11-16.6-1-3-1-3-1-6h-2c-3.29-5.14-4.76-9.21-5.38-15.2-0.0941-0.706-0.188-1.41-0.285-2.14-0.448-3.88-0.574-5.26 1.66-8.61 1.32 2.64 2.64 5.28 4 8-0.0619-1.09-0.124-2.19-0.188-3.31 0.188-3.69 0.188-3.69 1.69-5.44 0.743-0.619 0.743-0.619 1.5-1.25v-3c0.33-0.66 0.66-1.32 1-2z" fill="#00ACEC"/>
<path transform="translate(746 1113)" d="m0 0c1.33 0.00773 1.33 0.00773 2.69 0.0156 0.887-0.00516 1.77-0.0103 2.69-0.0156 2.31 0.266 2.31 0.266 4.31 2.27 0.2 3.09 0.28 6.08 0.266 9.17 0.00287 1.37 0.00287 1.37 0.0058 2.77 0.00136 1.94-0.00234 3.88-0.0107 5.82-0.0106 2.96-1.34e-4 5.92 0.0127 8.88-0.00132 1.89-0.00389 3.77-0.00781 5.66 0.00405 0.881 0.0081 1.76 0.0123 2.67-0.0412 5.45-0.133 10.6-3.93 14.9-0.608 0.478-1.22 0.956-1.84 1.45-0.913 0.737-0.913 0.737-1.84 1.49-5.21 3.77-13.5 3.12-19.7 2.2-4.85-2.1-8.03-5.07-10-10-0.0777-2.33-0.0897-4.67 0-7 4.12-1.29 7.67-2.26 12-2 0.33 1.65 0.66 3.3 1 5 2.97 0.66 5.94 1.32 9 2 0.0198-1.29 0.0396-2.58 0.0601-3.92 0.0759-4.78 0.165-9.56 0.257-14.3 0.0383-2.07 0.0732-4.14 0.104-6.22 0.0455-2.97 0.104-5.95 0.164-8.92 0.0116-0.93 0.0231-1.86 0.035-2.82 0.0199-0.861 0.0397-1.72 0.0602-2.61 0.0133-0.759 0.0266-1.52 0.0404-2.3 0.448-3.01 1.65-3.8 4.59-4.14z" fill="#000204"/>
<path transform="translate(214 1113)" d="m0 0c1.05-0.0213 1.05-0.0213 2.12-0.043 1.88 0.23 1.88 0.23 3.88 2.23 0.633 2.16 0.633 2.16 1.12 4.62 0.168 0.817 0.335 1.63 0.508 2.48 0.121 0.626 0.242 1.25 0.367 1.9 2.31 0.66 4.62 1.32 7 2 1.05 3.98 0.841 6.98 0 11-2.31 0.66-4.62 1.32-7 2v18c2.31 0.66 4.62 1.32 7 2 1.18 3.67 1.07 7.17 1 11-7.4 0.444-13.9 0.688-20-4-2.16-3.25-2.38-4.75-2.75-8.55-0.115-1.09-0.231-2.18-0.35-3.31-0.227-2.29-0.451-4.58-0.672-6.88-0.616-5.78-1.34-10.1-4.23-15.3 0.754-3.57 1.42-5.42 4-8 0.618-2.58 1.02-5.17 1.44-7.79 0.186-0.731 0.371-1.46 0.562-2.21 2.23-1.11 3.53-1.16 6-1.19z" fill="#000204"/>
<path transform="translate(302,1106)" d="m0 0c3.02 2.36 3.93 3.51 4.5 7.38-0.575 4.17-1.94 6.34-4.5 9.62 0.846 0.681 1.69 1.36 2.56 2.06 2.44 2.94 2.44 2.94 2.5 6.44-1.13 3.72-2.63 5.53-5.06 8.5-0.856 3.94-1.16 7.81-1.32 11.8-0.0419 1.06-0.0838 2.13-0.127 3.22-0.0393 1.09-0.0786 2.19-0.119 3.32-0.0432 1.12-0.0864 2.24-0.131 3.39-0.106 2.75-0.208 5.49-0.307 8.24-1.98 0.0269-3.96 0.0463-5.94 0.0625-1.1 0.0116-2.2 0.0232-3.34 0.0352-2.72-0.0977-2.72-0.0977-3.72-1.1-0.193-2.13-0.324-4.27-0.43-6.41-0.0737-1.33-0.148-2.66-0.223-4-0.113-2.1-0.222-4.2-0.322-6.3-0.0985-2.03-0.213-4.05-0.331-6.08-0.0617-1.21-0.123-2.43-0.187-3.68-0.578-4.02-1.85-6.84-3.51-10.5 0.125-2.75 0.125-2.75 1-5 0.486-0.441 0.972-0.882 1.47-1.34 1.93-2.1 2.22-3.77 2.84-6.54 1.49-5.3 3.05-7.18 7.69-10.1 2.31-1.14 4.59-2.08 7-3z" fill="#000204"/>
<path transform="translate(437,779)" d="m0 0c1.32 0.66 2.64 1.32 4 2v2c0.909 0.0947 0.909 0.0947 1.84 0.191 6.36 0.93 10.2 2.96 15.3 6.8 5.88 4.06 12.5 6.96 18.9 10 0.848 0.402 1.7 0.804 2.57 1.22 2.13 0.973 4.27 1.89 6.43 2.78 0.911 0.387 1.82 0.773 2.76 1.17 7.52 3.06 15.1 5.23 23 7.13 0.785 0.193 1.57 0.387 2.38 0.586 0.703 0.167 1.41 0.334 2.13 0.507 1.76 0.607 1.76 0.607 3.76 2.61-0.33 0.99-0.66 1.98-1 3-2.31-0.33-4.62-0.66-7-1 1.96 1.51 3.78 2.89 6 4v2c2.97 0.99 5.94 1.98 9 3-3.27 0.817-5.47 1.11-8.75 1.06-0.799-0.00902-1.6-0.018-2.42-0.0273-0.603-0.0116-1.21-0.0232-1.83-0.0352v-2l-4-1c1.05 1.16 1.05 1.16 3 2v2c1.49 0.495 1.49 0.495 3 1-3.4 1.14-5.77 0.84-9.25 0.0625-0.892-0.195-1.78-0.389-2.7-0.59-0.675-0.156-1.35-0.312-2.05-0.473v-5c-1.96-1.39-3.96-2.73-6-4 0.33-0.99 0.66-1.98 1-3-2.31-0.33-4.62-0.66-7-1v-2h-2v-2h-2c-0.419-0.44-0.838-0.879-1.27-1.33-2.24-2.16-4.57-3.12-7.42-4.36-0.994-0.437-1.99-0.874-3.01-1.32-0.759-0.326-1.52-0.652-2.3-0.988v3c-4.14 1.14-6.89 0.768-11-0.375-3.66-0.998-7.27-1.93-11-2.62l1-2c-0.928-0.454-1.86-0.908-2.81-1.38-3.19-1.62-3.19-1.62-6.19-3.62h-4c-0.66-0.66-1.32-1.32-2-2 0.784-0.144 1.57-0.289 2.38-0.438 2.59-0.44 2.59-0.44 4.62-1.56-1.61-2.71-3.25-5.37-5-8v-2c-0.315-1.34-0.646-2.67-1-4z" fill="#00ACEE"/>
<path transform="translate(132 1110)" d="m0 0c1.48 0.0213 1.48 0.0213 3 0.043 0.991 0.00645 1.98 0.0129 3 0.0195 2.43 0.168 2.43 0.168 3.43 1.17 0.0938 1.84 0.117 3.69 0.114 5.53-7.55e-5 1.18-1.51e-4 2.36-2.29e-4 3.58-0.00516 1.29-0.0103 2.57-0.0156 3.9-0.00141 1.31-0.00283 2.62-0.00429 3.96-0.00382 3.48-0.0137 6.97-0.0247 10.5-0.0102 3.55-0.0148 7.1-0.0198 10.7-0.0107 6.97-0.0278 13.9-0.0488 20.9-2.15 0.0269-4.29 0.0463-6.44 0.0625-1.19 0.0116-2.39 0.0232-3.62 0.0352-2.94-0.0977-2.94-0.0977-3.94-1.1-0.104-1.77-0.139-3.54-0.145-5.31-0.00638-1.13-0.0128-2.27-0.0193-3.44-0.00111-1.24-0.00223-2.47-0.00337-3.74-0.00333-1.26-0.00666-2.52-0.0101-3.82-0.00507-2.67-0.00784-5.34-0.00725-8.01 1.02e-4 -3.42-0.0135-6.85-0.0308-10.3-0.0138-3.26-0.0132-6.52-0.0144-9.78-0.00719-1.23-0.0144-2.47-0.0218-3.74 0.00308-1.14 0.00615-2.28 0.00932-3.45-0.00214-1.51-0.00214-1.51-0.00432-3.05 0.359-3.49 1.35-4.32 4.81-4.63z" fill="#000204"/>
<path transform="translate(373 1125)" d="m0 0c3.01 0.568 4.26 2.08 6.15 4.41h3c0.66-0.66 1.32-1.32 2-2 0.66-0.66 1.32-1.32 2-2h3c1.96 4.73 2.86 8.13 1 13-2.77 1.58-5.52 2.7-8.53 3.76-2.59 0.944-2.59 0.944-3.1 2.98-0.416 2.57-0.581 5.08-0.682 7.68-0.0419 1.02-0.0838 2.05-0.127 3.11-0.0393 1.06-0.0786 2.13-0.119 3.22-0.0432 1.08-0.0864 2.16-0.131 3.27-0.106 2.66-0.208 5.32-0.307 7.98-2.15 0.0269-4.29 0.0463-6.44 0.0625-1.19 0.0116-2.39 0.0232-3.62 0.0352-2.94-0.0977-2.94-0.0977-3.94-1.1-0.126-2.91-0.189-5.8-0.203-8.71-0.0057-0.877-0.0114-1.75-0.0173-2.66-0.00947-1.86-0.016-3.72-0.0198-5.58-0.00969-2.84-0.0407-5.69-0.0723-8.53-0.00653-1.81-0.0118-3.61-0.0156-5.42-0.0123-0.851-0.0247-1.7-0.0374-2.58 0.0222-5.9 0.0222-5.9 1.75-9.06 2.66-2.41 5.02-2 8.46-1.87z" fill="#000204"/>
<path transform="translate(1169 1113)" d="m0 0c1.48 0.0213 1.48 0.0213 3 0.043 0.991 0.00645 1.98 0.0129 3 0.0195 2.43 0.168 2.43 0.168 3.43 1.17 0.0937 1.75 0.117 3.5 0.114 5.25-7.55e-5 1.12-1.51e-4 2.24-2.29e-4 3.4-0.00516 1.22-0.0103 2.44-0.0156 3.7-0.00141 1.24-0.00283 2.48-0.00429 3.76-0.00466 3.31-0.0137 6.61-0.0247 9.92-0.0102 3.37-0.0148 6.74-0.0198 10.1-0.0111 6.62-0.0278 13.2-0.0488 19.9-2.15 0.0269-4.29 0.0463-6.44 0.0625-1.19 0.0116-2.39 0.0232-3.62 0.0352-2.94-0.0977-2.94-0.0977-3.94-1.1-0.104-1.68-0.139-3.36-0.145-5.04-0.00638-1.07-0.0128-2.15-0.0193-3.26-0.00111-1.17-0.00223-2.34-0.00337-3.54-0.00333-1.19-0.00666-2.38-0.0101-3.61-0.00507-2.53-0.00741-5.06-0.00725-7.58-0.00219-3.88-0.0203-7.76-0.0393-11.6-0.00293-2.45-0.00492-4.9-0.00586-7.35-0.00719-1.17-0.0144-2.34-0.0218-3.54 0.00308-1.08 0.00615-2.16 0.00932-3.27-0.00143-0.952-0.00285-1.9-0.00432-2.88 0.371-3.42 1.43-4.21 4.81-4.51z" fill="#000204"/>
<path transform="translate(607,444)" d="m0 0h1c0.495 2.48 0.495 2.48 1 5h2v52c-5.95-0.661-10.1-1.14-15.5-2.88-8.06-2.41-16.2-3.8-24.5-5.12 3.79-2.13 6.66-2.17 11-2-0.33-0.66-0.66-1.32-1-2 0.938-2.62 0.938-2.62 2-5 0.33 0.99 0.66 1.98 1 3 0.99 0.33 1.98 0.66 3 1 0.33-2.97 0.66-5.94 1-9 1.49-0.495 1.49-0.495 3-1v-2h2v-2h2c0.33-0.99 0.66-1.98 1-3h2c0.33-1.98 0.66-3.96 1-6 1.76 3.09 2 4.23 2 8 0.144-1.24 0.289-2.48 0.438-3.75 0.349-2.82 0.766-5.52 1.56-8.25-0.99-0.33-1.98-0.66-3-1 0.33-0.598 0.66-1.2 1-1.81 1.21-2.24 1.21-2.24 1-5.19v-2h2v2h2c0.33-2.97 0.66-5.94 1-9z" fill="#00ADEC"/>
<path transform="translate(823,1026)" d="m0 0c4.62 3.54 5.26 7.51 6 13 0.108 0.772 0.217 1.54 0.328 2.34 0.327 4.34-0.132 7.05-2.83 10.5-4.72 5.43-12.6 6.61-19.4 7.31-0.726 0.079-1.45 0.158-2.2 0.239-14.9 1.47-33.6 3.26-46.3-5.79-2.39-2.34-3.49-4.4-3.97-7.71-0.0304-5.64 1.04-9.75 3.3-14.9 1.32 0.33 2.64 0.66 4 1 0.0258 0.964 0.0516 1.93 0.0781 2.92 0.0567 1.26 0.113 2.53 0.172 3.83 0.0464 1.25 0.0928 2.51 0.141 3.8 0.359 3.44 0.359 3.44 2.22 5.78 4.97 3.48 10.5 3.93 16.4 3.94 1.98 0.00387 1.98 0.00387 3.99 0.00781 0.679-0.00419 1.36-0.00838 2.06-0.0127 2.04-0.0106 4.08-1.27e-4 6.12 0.0127 14.5 0.421 14.5 0.421 27.8-4.27 0.405-2.09 0.405-2.09 0.25-4.5-0.0258-0.884-0.0516-1.77-0.0781-2.68-0.261-4.29-0.664-8.55-1.17-12.8 0.99-0.66 1.98-1.32 3-2z" fill="#000204"/>
<path transform="translate(1050,455)" d="m0 0c0.33 0.66 0.66 1.32 1 2 1.32-0.33 2.64-0.66 4-1 1.42 3.82 2.24 6.91 2 11-1.32-0.66-2.64-1.32-4-2-0.33 0.99-0.66 1.98-1 3 0.598 0.0206 1.2 0.0412 1.81 0.0625 2.19 0.938 2.19 0.938 3.94 4.31 1.39 4.04 1.25 7.41 1.25 11.6h2c0.33-0.66 0.66-1.32 1-2h2v2h2v9h-3c0.66 1.32 1.32 2.64 2 4-9.4 2.48-9.4 2.48-19 5-1.69-3.38-1.12-7.22-1.1-10.9 0.00141-0.885 0.00283-1.77 0.00429-2.68 0.00561-2.83 0.0182-5.67 0.0309-8.5 0.00501-1.92 0.00958-3.84 0.0137-5.75 0.011-4.71 0.0283-9.41 0.0488-14.1 0.99-0.33 1.98-0.66 3-1v2h2v-4c-0.66-0.33-1.32-0.66-2-1 0.66-0.33 1.32-0.66 2-1z" fill="#00ACF0"/>
<path transform="translate(872,901)" d="m0 0c3.07 2.31 3.86 4.95 4.97 8.55 0.342 1.09 0.684 2.18 1.04 3.31 0.347 1.14 0.695 2.28 1.05 3.46 0.699 2.25 1.4 4.49 2.1 6.74 0.306 0.997 0.611 1.99 0.926 3.02 0.933 2.99 1.91 5.96 2.91 8.93-8.31-0.348-8.31-0.348-11.1-2.94-0.938-2.06-0.938-2.06-0.938-4.06-2.97 0.33-5.94 0.66-9 1-0.99 2.48-0.99 2.48-2 5h-7c-1.27-3.82-0.491-5.3 0.766-9.09 0.594-1.79 0.594-1.79 1.2-3.62 0.424-1.25 0.848-2.5 1.29-3.79 0.409-1.25 0.817-2.5 1.24-3.79 0.601-1.79 0.601-1.79 1.21-3.62 0.368-1.1 0.735-2.19 1.11-3.32 2.27-5.31 4.39-6.5 10.2-5.77z" fill="#07090B"/>
<path transform="translate(829,901)" d="m0 0c10.2 25.7 10.2 25.7 10 33-6.66-0.628-6.66-0.628-8.44-2.56-2.35-2.16-4.59-1.91-7.69-1.81-2.11 0.237-2.11 0.237-3.88 2.37-0.33 0.66-0.66 1.32-1 2-2.31-0.33-4.62-0.66-7-1-1.8-5.39 1.37-10.8 3.19-16 0.4-1.2 0.801-2.4 1.21-3.64 0.597-1.72 0.597-1.72 1.21-3.48 0.362-1.05 0.725-2.11 1.1-3.2 2.59-5.35 5.59-6.07 11.3-5.68z" fill="#070A0C"/>
<path transform="translate(748,901)" d="m0 0c2.82 3.06 3.97 6.31 5.26 10.2 0.396 1.2 0.793 2.39 1.2 3.62 0.606 1.87 0.606 1.87 1.22 3.77 0.419 1.27 0.839 2.53 1.26 3.8 3.05 9.28 3.05 9.28 3.05 11.6-2.97-0.33-5.94-0.66-9-1-0.66-1.65-1.32-3.3-2-5-4.95 0.495-4.95 0.495-10 1-0.33 1.65-0.66 3.3-1 5-2.88 0.125-2.88 0.125-6 0-0.66-0.66-1.32-1.32-2-2 0.67-5.71 2.97-11.2 4.81-16.6 0.344-1.05 0.687-2.1 1.04-3.18 0.344-1.01 0.687-2.01 1.04-3.05 0.462-1.37 0.462-1.37 0.933-2.78 2.18-4.42 5.28-6.25 10.2-5.37z" fill="#0A0B0D"/>
<path transform="translate(707,902)" d="m0 0c3.51 1.87 5.67 3.93 6.88 7.81 0.0412 0.722 0.0825 1.44 0.125 2.19-4.1 0.186-6.39-0.196-10-2-4.09-0.446-4.09-0.446-7.75 1.12-2.33 3.5-3.42 6.55-2.88 10.8 0.206 0.701 0.413 1.4 0.625 2.12 5.23 1.74 10.1 1.35 15.4-0.0625 3.62-0.938 3.62-0.938 5.62 0.0625-0.0625 2.25-0.0625 2.25-1 5-2.22 1.7-4.46 2.75-7 4-0.99 0.495-0.99 0.495-2 1-6.48 0.549-9.66-0.3-15-4-3.21-2.79-4.77-4.7-5.2-9.05-0.106-5.11 0.217-8.62 3.2-12.9 5.96-6 10.6-8.09 19-6z" fill="#000204"/>
<path transform="translate(948 901)" d="m0 0c1.25 0.0155 2.5 0.0309 3.79 0.0469 3.02 0.203 3.02 0.203 4.02 1.2v5c-3.3 0.33-6.6 0.66-10 1v5c2.97 0.33 5.94 0.66 9 1 0.33 1.98 0.66 3.96 1 6-2.97 0.66-5.94 1.32-9 2-0.33 1.32-0.66 2.64-1 4 0.957 0.0909 0.957 0.0909 1.93 0.184 0.826 0.0838 1.65 0.168 2.5 0.254 1.24 0.122 1.24 0.122 2.5 0.246 2.07 0.316 2.07 0.316 3.07 1.32 0.0406 1.67 0.0427 3.33 0 5-2.98 0.0268-5.96 0.0468-8.94 0.0625-0.85 0.00838-1.7 0.0168-2.58 0.0254-0.809 0.00322-1.62 0.00645-2.45 0.00977-0.749 0.00524-1.5 0.0105-2.27 0.0159-1.77-0.114-1.77-0.114-2.77-1.11-0.31-4.62-0.278-9.25-0.312-13.9-0.029-1.31-0.058-2.61-0.0879-3.96-0.00838-1.25-0.0168-2.5-0.0254-3.79-0.0146-1.15-0.0292-2.3-0.0442-3.49 0.47-2.9 0.47-2.9 2.28-4.77 3.17-1.63 5.84-1.44 9.37-1.37z" fill="#000204"/>
<path transform="translate(1048 1136)" d="m0 0c0.708 0.00719 1.42 0.0144 2.15 0.0218 1.09 6.87e-4 1.09 6.87e-4 2.2 0.00139 1.54 0.00302 3.07 0.0109 4.61 0.0233 2.36 0.0183 4.72 0.0205 7.08 0.0203 1.49 0.00491 2.98 0.0107 4.47 0.0176 0.71 0.00111 1.42 0.00223 2.15 0.00337 4.98 0.0485 4.98 0.0485 6.09 1.16 0.0982 1.66 0.13 3.33 0.125 5 0.00387 1.36 0.00387 1.36 0.00781 2.75-0.133 2.25-0.133 2.25-1.13 3.25-4.34 0.219-8.7 0.186-13 0.185-2.18 0.00217-4.36 0.0203-6.54 0.0393-1.39 0.00294-2.78 0.00492-4.18 0.00586-1.9 0.00616-1.9 0.00616-3.84 0.0125-3.25-0.233-5.48-0.838-8.4-2.24 0.989-10.2 0.989-10.2 8.23-10.3z" fill="#000204"/>
<path transform="translate(574 1e3)" d="m0 0c2.12 0.375 2.12 0.375 4 1 0.786 6.5 1.28 13 1.56 19.5 0.0425 0.975 0.0849 1.95 0.129 2.96 0.454 11.5 0.404 23 0.309 34.5-2 0.0425-4 0.0408-6 0-1.55-1.55-1.22-3.09-1.32-5.26-0.0421-0.922-0.0843-1.84-0.128-2.79-0.0391-1.01-0.0781-2.03-0.118-3.07-0.041-1.04-0.082-2.09-0.124-3.16-0.299-8.5-0.447-17-0.489-25.5-0.00751-1.4-0.0182-2.79-0.032-4.19-0.0178-1.97-0.0203-3.93-0.0222-5.9-0.00411-1.14-0.00822-2.27-0.0125-3.44 0.243-2.69 0.243-2.69 2.24-4.69z" fill="#000204"/>
<path transform="translate(786 901)" d="m0 0c1.12 0.00387 2.25 0.00773 3.41 0.0117 2.92 0.284 4.62 0.779 7.09 2.3v5h-11c-0.33 1.65-0.66 3.3-1 5 1.11 0.124 2.23 0.247 3.38 0.375 3.62 0.625 3.62 0.625 5.62 2.62v4l-6.05 0.488c-2.34 0.386-2.34 0.386-3.95 3.51-0.456 2.51-0.456 2.51-0.625 5.19-0.0748 0.901-0.15 1.8-0.227 2.73-0.049 0.687-0.098 1.37-0.148 2.08-2 0.0425-4 0.0408-6 0-2.62-2.62-1.27-9.74-1.3-13.3-0.0172-2.06-0.0611-4.12-0.105-6.18-0.00838-1.29-0.0168-2.59-0.0254-3.92-0.0146-1.19-0.0292-2.39-0.0442-3.61 0.47-2.99 0.47-2.99 2.3-4.88 2.98-1.53 5.34-1.47 8.67-1.42z" fill="#000204"/>
<path transform="translate(1101,1036)" d="m0 0c2.67 4.01 2.93 7.29 2 12-3.96 4.28-8.42 4.59-14 4.92-5.01 0.136-10 0.161-15 0.082-0.33-0.66-0.66-1.32-1-2 4.76-7.35 10.2-11.8 18.1-15.4 3.61-0.706 6.32-0.452 9.88 0.438z" fill="#FDFDFD"/>
<path transform="translate(971 1e3)" d="m0 0c2.62 0.375 2.62 0.375 5 1 0.847 12.7 1.28 25.4 1.56 38.1 0.0433 1.85 0.087 3.7 0.131 5.55 0.105 4.46 0.207 8.93 0.307 13.4-2 0.0425-4 0.0408-6 0-1.68-1.68-1.23-3.82-1.33-6.13-0.0464-1.09-0.0928-2.19-0.141-3.32-0.0449-1.19-0.0897-2.38-0.136-3.61-0.0477-1.21-0.0954-2.43-0.145-3.68-0.0992-2.57-0.196-5.15-0.29-7.72-0.147-3.95-0.31-7.91-0.474-11.9-0.0941-2.5-0.187-4.99-0.279-7.49-0.0509-1.19-0.102-2.38-0.154-3.6-0.037-1.1-0.0739-2.2-0.112-3.33-0.0554-1.45-0.0554-1.45-0.112-2.94 0.171-2.32 0.171-2.32 2.17-4.32z" fill="#000204"/>
<path transform="translate(909 901)" d="m0 0c0.808-0.0122 1.62-0.0245 2.45-0.0371 4.37-0.0107 7.76 0.183 11.7 2.22-0.562 1.88-0.562 1.88-2 4-2.31 0.66-4.62 1.32-7 2-0.33 7.92-0.66 15.8-1 24h-7c-1.68-1.68-1.23-3.82-1.32-6.13-0.0419-1.03-0.0838-2.07-0.127-3.13-0.0393-1.09-0.0786-2.18-0.119-3.3-0.0432-1.09-0.0864-2.18-0.131-3.31-0.106-2.71-0.208-5.42-0.307-8.13-2.64-0.99-5.28-1.98-8-3 2.76-6.12 6.64-5.18 12.8-5.19z" fill="#000204"/>
<path transform="translate(337,1137)" d="m0 0c3.55 2.8 4.32 5.62 4.94 9.94 0.293 4.46-0.341 7.31-2.94 11.1-3.5 1.75-7.28 0.841-11 0-3.31-2.15-3.86-3.52-4.94-7.31-0.0871-5.14 1.23-8.79 4.69-12.6 3.32-1.57 5.63-1.58 9.25-1.06z" fill="#FDFDFD"/>
<path transform="translate(178,1138)" d="m0 0c3.09 3.09 3.93 6.03 4.25 10.4-0.265 3.84-0.936 5.6-3.25 8.62-3.49 1.75-7.19 1.56-11 1-3.06-1.94-3.06-1.94-5-5-0.864-3.88-0.911-7.33 1.03-10.9 4.19-5.29 7.62-5.6 14-4.12z" fill="#FDFDFD"/>
<path transform="translate(577,1137)" d="m0 0c2.81 2.44 2.81 2.44 5 5 0.33 0.33 0.66 0.66 1 1 0.482 4.78 0.843 9.35-1.38 13.7-4.15 2.08-8.09 2.04-12.6 1.31-2.56-1.5-2.56-1.5-4-4-1.12-4.62-1.41-6.85 0.188-11.3 3.25-4.82 5.87-6.66 11.8-5.69z" fill="#FDFDFD"/>
<path transform="translate(500,817)" d="m0 0c6.94-0.331 11.9 1.82 18 5v2c2.97 0.99 5.94 1.98 9 3-3.27 0.817-5.47 1.11-8.75 1.06-0.799-0.00902-1.6-0.018-2.42-0.0273-0.603-0.0116-1.21-0.0232-1.83-0.0352v-2c-1.32-0.33-2.64-0.66-4-1 1.05 1.16 1.05 1.16 3 2v2c0.99 0.33 1.98 0.66 3 1-3.4 1.14-5.77 0.84-9.25 0.0625-0.892-0.195-1.78-0.389-2.7-0.59-0.675-0.156-1.35-0.312-2.05-0.473v-5c-1.96-1.39-3.96-2.73-6-4 0.66-0.66 1.32-1.32 2-2 0.66 0.33 1.32 0.66 2 1v-2z" fill="#00ACEC"/>
<path transform="translate(1388 1147)" d="m0 0c1.07-0.0168 2.14-0.0335 3.25-0.0508 0.908 0.12 1.82 0.24 2.75 0.363 2.14 3.2 2.23 4.02 2.12 7.69-0.018 0.808-0.0361 1.62-0.0547 2.45-0.0232 0.615-0.0464 1.23-0.0703 1.86-2.46 0.0808-4.92 0.14-7.38 0.188-1.05 0.0377-1.05 0.0377-2.12 0.0762-2.03 0.0293-2.03 0.0293-5.51-0.264-2-3-2-3-1.75-6.56 1.26-5.75 3.32-5.73 8.75-5.75z" fill="#FDFDFD"/>
<path transform="translate(98.4 1124)" d="m0 0c3.17 0.0867 4.42 0.253 7.19 1.94 1.94 3.3 1.79 5.68 1.44 9.44-0.33 0.66-0.66 1.32-1 2-3.98 1.17-7.88 1.23-12 1-2-2-2-2-2.27-4.31 0.00516-0.887 0.0103-1.77 0.0156-2.69-0.00516-0.887-0.0103-1.77-0.0156-2.69 0.496-4.32 2.8-4.62 6.64-4.69z" fill="#FDFDFD"/>
<path transform="translate(716 620)" d="m0 0c1.45 0.00399 2.9 0.0188 4.35 0.043 1.09 9.67e-4 1.09 9.67e-4 2.21 0.00195 3.2 0.0264 5.8 0.166 8.85 1.19-1.07 2.13-2.29 3.37-4 5-0.66-0.33-1.32-0.66-2-1-0.33 0.66-0.66 1.32-1 2h-3v2c1.32 0.33 2.64 0.66 4 1-0.784 0.144-1.57 0.289-2.38 0.438-2.59 0.44-2.59 0.44-4.62 1.56v-2c-0.99 0.495-0.99 0.495-2 1 1.32 1.32 2.64 2.64 4 4-5.49 0.366-5.49 0.366-7.81-1.31-2.6-3.7-2.43-7.31-2.19-11.7 2-2 2-2 5.59-2.23z" fill="#00ACEC"/>
<path transform="translate(1050,455)" d="m0 0c0.33 0.66 0.66 1.32 1 2 1.32-0.33 2.64-0.66 4-1 1.42 3.82 2.24 6.91 2 11-1.32-0.66-2.64-1.32-4-2-0.33 0.99-0.66 1.98-1 3 0.66 0.33 1.32 0.66 2 1-0.99 0.66-1.98 1.32-3 2-0.66-0.66-1.32-1.32-2-2v26c-1.32-0.99-2.64-1.98-4-3-0.357-2.58-0.468-4.72-0.391-7.29 0.00566-0.706 0.0113-1.41 0.0172-2.14 0.0224-2.25 0.0726-4.5 0.123-6.76 0.0201-1.53 0.0383-3.06 0.0547-4.58 0.0441-3.74 0.113-7.49 0.195-11.2 0.99-0.33 1.98-0.66 3-1v2h2v-4c-0.66-0.33-1.32-0.66-2-1 0.66-0.33 1.32-0.66 2-1z" fill="#00ACEC"/>
<path transform="translate(1168 1037)" d="m0 0c2.33 1.66 3.57 2.84 4.94 5.38 0.312 3.62 0.312 3.62 0 7-2.39 2.39-3.04 2.3-6.31 2.31-4-0.071-6.46-0.813-9.69-3.31 0.504-4.41 1.96-6.79 5-10 2.4-1.72 3.21-2.24 6.06-1.38z" fill="#FDFDFD"/>
<path transform="translate(1384 1124)" d="m0 0c0.785 0.00516 1.57 0.0103 2.38 0.0156 1.17-0.00773 1.17-0.00773 2.37-0.0156 2.19 0.266 2.19 0.266 5.19 2.27 0.293 2.38 0.293 2.38 0.188 5.12-0.0271 0.91-0.0541 1.82-0.082 2.76-0.0348 0.699-0.0696 1.4-0.105 2.12-2.15 0.0269-4.29 0.0463-6.44 0.0625-1.19 0.0116-2.39 0.0232-3.62 0.0352-2.94-0.0977-2.94-0.0977-3.94-1.1-0.168-2-0.168-2-0.188-4.44-0.0142-0.803-0.0284-1.61-0.043-2.43 0.323-2.99 1.3-4.01 4.29-4.39z" fill="#FDFDFD"/>
<path transform="translate(903,748)" d="m0 0c2.38 3.58 2.32 5.36 2.45 9.62 0.0326 0.98 0.0326 0.98 0.0659 1.98 0.0439 1.39 0.0831 2.77 0.118 4.16 0.0534 2.08 0.124 4.15 0.197 6.23 0.539 17.1 0.539 17.1-0.83 25-0.66 0.66-1.32 1.32-2 2-1.7-2.97-2.25-5.08-2.23-8.49 1.51e-4 -0.881 3.02e-4 -1.76 4.58e-4 -2.67 0.0103-0.942 0.0206-1.88 0.0313-2.85 0.00283-0.971 0.00566-1.94 0.00858-2.94 0.0112-3.1 0.0363-6.19 0.0617-9.29 0.01-2.1 0.0192-4.2 0.0273-6.3 0.022-5.15 0.0566-10.3 0.0977-15.4 0.66-0.33 1.32-0.66 2-1z" fill="#00AEF2"/>
<path transform="translate(1027,1031)" d="m0 0c0.33 4.29 0.66 8.58 1 13-10.3 0.492-10.3 0.492-13.7-2-0.433-0.66-0.866-1.32-1.31-2 1.5-3.87 2.91-6.28 6.44-8.44 3.56-1.56 3.56-1.56 7.56-0.562z" fill="#FDFDFD"/>
<path transform="translate(1122,840)" d="m0 0c0 3 0 3-1 5 2.31 0.66 4.62 1.32 7 2l-2 1v2c-7.07 0.852-14 1.13-21.1 1.06-1.43-0.00677-1.43-0.00677-2.9-0.0137-2.33-0.0116-4.65-0.028-6.98-0.0488v-1c0.869-0.133 1.74-0.266 2.63-0.402 1.15-0.177 2.3-0.353 3.49-0.535 1.14-0.174 2.27-0.348 3.45-0.527 3.15-0.491 6.29-1.01 9.43-1.54-3.15-0.701-5.73-1-9-1v-2c5.69-2.1 11-3.45 17-4z" fill="#00AEF2"/>
<path transform="translate(437 1032)" d="m0 0c0.799 0.018 1.6 0.0361 2.42 0.0547 0.603 0.0232 1.21 0.0464 1.83 0.0703 1.4 2.81 1.25 4.89 1 8-1.5 2.38-1.5 2.38-3 4-5.63-0.402-8-2.29-12-6 0.25-1.88 0.25-1.88 1-4 2.97-1.91 5.26-2.23 8.75-2.12z" fill="#FDFDFD"/>
<path transform="translate(1313,702)" d="m0 0h1c0.749 17.2 0.749 17.2-4 24-0.66 0.33-1.32 0.66-2 1-0.358 2.33-0.688 4.66-1 7-1.06 2.94-1.06 2.94-2 5-1.03-3.1-1.04-4.8-0.75-8 0.067-0.866 0.134-1.73 0.203-2.62 0.619-2.69 1.44-3.65 3.55-5.38-1.65-0.33-3.3-0.66-5-1 1.32-1.32 2.64-2.64 4-4 0.33 0.66 0.66 1.32 1 2 0.186-1.64 0.186-1.64 0.375-3.31 0.625-3.69 0.625-3.69 2.62-6.69 0.662-2.05 0.662-2.05 1.12-4.19 0.433-1.89 0.433-1.89 0.875-3.81z" fill="#00AEF2"/>
<path transform="translate(1130,1134)" d="m0 0c0.99 0.33 1.98 0.66 3 1 0.949 2.11 0.949 2.11 1.69 4.75 0.377 1.29 0.377 1.29 0.762 2.61 0.548 2.63 0.652 4.96 0.551 7.64h-9c-1.24-4.27-0.691-6.72 0.938-10.8 0.38-0.976 0.761-1.95 1.15-2.96 0.3-0.736 0.601-1.47 0.91-2.23z" fill="#FDFDFD"/>
<path transform="translate(1441,1135)" d="m0 0c3.29 2.19 3.56 2.79 4.69 6.38 0.251 0.771 0.503 1.54 0.762 2.34 0.551 2.29 0.551 2.29 0.551 6.29h-10c-1.09-4.37-0.82-5.23 0.875-9.19 0.369-0.88 0.737-1.76 1.12-2.67 1.01-2.14 1.01-2.14 2.01-3.14z" fill="#FDFDFD"/>
<path transform="translate(1497,1135)" d="m0 0c3.6 2.4 3.67 3.42 4.69 7.5 0.377 1.47 0.377 1.47 0.762 2.97 0.551 2.53 0.551 2.53 0.551 4.53h-10c-1.25-3.75-0.517-4.99 0.875-8.62 0.369-0.982 0.737-1.96 1.12-2.98 1.01-2.4 1.01-2.4 2.01-3.4z" fill="#FDFDFD"/>
<path transform="translate(719,667)" d="m0 0h3c0.103 0.536 0.206 1.07 0.312 1.62 0.618 2.51 0.618 2.51 2.25 5 1.93 4.53 1.7 8.52 1.44 13.4-1.89-0.57-1.89-0.57-4-2-1.05-3.12-1.05-3.12-1.75-6.88-0.242-1.23-0.485-2.47-0.734-3.74-0.516-3.38-0.516-3.38-0.516-7.38z" fill="#00ACEC"/>
<path transform="translate(951,1137)" d="m0 0c1.94 1.88 1.94 1.88 3 4v2h-14c0-3 0-3 1.56-4.69 3.36-1.81 5.68-1.79 9.44-1.31z" fill="#FDFDFD"/>
<path transform="translate(261,1137)" d="m0 0c2.38 1.88 2.38 1.88 4 4v2h-14c-0.33-0.66-0.66-1.32-1-2 3.55-3.71 5.77-4.52 11-4z" fill="#FDFDFD"/>
<path transform="translate(632,1138)" d="m0 0c2.23 3.06 2.23 3.06 4 6-2.48-0.113-4.96-0.24-7.44-0.375-0.707-0.0309-1.41-0.0619-2.14-0.0938-1.81-0.104-3.62-0.31-5.42-0.531-0.33-0.66-0.66-1.32-1-2 4-4.18 6.25-4.49 12-3z" fill="#FDFDFD"/>
<path transform="translate(791,1137)" d="m0 0c4 4.11 4 4.11 4 6h-14l-1-2c3.52-3.68 5.79-4.62 11-4z" fill="#FDFDFD"/>
<path transform="translate(504,1137)" d="m0 0c2.38 1.88 2.38 1.88 4 4v2h-13l-1-4c3.4-2.09 6.03-2.5 10-2z" fill="#FDFDFD"/>
<path transform="translate(1113,859)" d="m0 0h6v11h-6v-11z" fill="#00AEF2"/>
<path transform="translate(571,844)" d="m0 0c5.94 0.33 11.9 0.66 18 1v2c0.66 0.33 1.32 0.66 2 1-2.98 0.994-4.21 1.02-7.23 0.66-0.802-0.0935-1.6-0.187-2.43-0.283-0.833-0.104-1.67-0.208-2.53-0.314-0.845-0.0999-1.69-0.2-2.56-0.303-2.08-0.247-4.17-0.503-6.25-0.76 0.33-0.99 0.66-1.98 1-3z" fill="#00AEF2"/>
<path transform="translate(698,269)" d="m0 0h6v2h2v6h-6v-2h-2v-6z" fill="#00AEF2"/>
<path transform="translate(506,812)" d="m0 0c1.99 0.202 3.97 0.487 5.94 0.812 1.62 0.257 1.62 0.257 3.28 0.52 2.79 0.668 2.79 0.668 4.79 2.67-0.33 0.99-0.66 1.98-1 3-5.4-1.15-10.7-2.42-16-4l3-3z" fill="#00ACEC"/>
<path transform="translate(792,1067)" d="m0 0c0.99 0.33 1.98 0.66 3 1 0.33 1.98 0.66 3.96 1 6-2.31 0.625-2.31 0.625-5 1-0.99-0.66-1.98-1.32-3-2 0.312-1.88 0.312-1.88 1-4 0.99-0.66 1.98-1.32 3-2z" fill="#000204"/>
<path transform="translate(1029,999)" d="m0 0c0.99 0.33 1.98 0.66 3 1 0.33 2.31 0.66 4.62 1 7-2.31-0.33-4.62-0.66-7-1-0.33-0.99-0.66-1.98-1-3 1.32-1.32 2.64-2.64 4-4z" fill="#000204"/>
<path transform="translate(1018,999)" d="m0 0c2 1.19 2 1.19 4 3 0.25 2.69 0.25 2.69 0 5-3.72 0.201-4.77 0.152-8-2 0.312-1.88 0.312-1.88 1-4 0.99-0.66 1.98-1.32 3-2z" fill="#000204"/>
<path transform="translate(918,1014)" d="m0 0c2 1.75 2 1.75 4 4v4h-6c-0.688-2.31-0.688-2.31-1-5 1.44-1.81 1.44-1.81 3-3z" fill="#000204"/>
<path transform="translate(989,558)" d="m0 0h5c0.66 1.32 1.32 2.64 2 4h-2v5c-2.31-0.66-4.62-1.32-7-2v-4h5v-2c-0.99-0.33-1.98-0.66-3-1z" fill="#00ACF0"/>
<path transform="translate(914,1006)" d="m0 0c1.5 1.19 1.5 1.19 3 3 0.188 2.69 0.188 2.69 0 5-2.34-0.256-4.68-0.593-7-1-0.33-0.66-0.66-1.32-1-2l5-5z" fill="#000204"/>
<path transform="translate(865,1066)" d="m0 0c1.32 0.33 2.64 0.66 4 1 0.33 1.98 0.66 3.96 1 6-2.34-0.256-4.68-0.593-7-1l-1-2c0.99-1.32 1.98-2.64 3-4z" fill="#000204"/>
<path transform="translate(683,1066)" d="m0 0c1.32 0.66 2.64 1.32 4 2v5h-6c-0.688-1.81-0.688-1.81-1-4 1.44-1.75 1.44-1.75 3-3z" fill="#000204"/>
<path transform="translate(471,1066)" d="m0 0c0.33 2.31 0.66 4.62 1 7-2.31-0.33-4.62-0.66-7-1 0.375-2.44 0.375-2.44 1-5 2-1 2-1 5-1z" fill="#000204"/>
<path transform="translate(674,1066)" d="m0 0c1.46 2.65 2 3.89 2 7-2.88 0.188-2.88 0.188-6 0-0.66-0.99-1.32-1.98-2-3 3.75-4 3.75-4 6-4z" fill="#000204"/>
<path transform="translate(909,1014)" d="m0 0c2 2 2 2 2.12 5.12-0.0412 0.949-0.0825 1.9-0.125 2.88-2.31-0.33-4.62-0.66-7-1 1.25-3.65 1.67-4.78 5-7z" fill="#000204"/>
<path transform="translate(1132,1019)" d="m0 0c2 2 2 2 2.12 5.12-0.0412 0.949-0.0825 1.9-0.125 2.88-2.38-0.312-2.38-0.312-5-1-0.66-0.99-1.32-1.98-2-3 1.63-1.71 2.87-2.93 5-4z" fill="#000204"/>
<path transform="translate(871,690)" d="m0 0h2c0.33 3.3 0.66 6.6 1 10-0.99-0.66-1.98-1.32-3-2-0.124 0.598-0.247 1.2-0.375 1.81-0.625 2.19-0.625 2.19-2.62 5.19v-9h2c0.33-1.98 0.66-3.96 1-6z" fill="#00ACF1"/>
<path transform="translate(632,1018)" d="m0 0h3c0.33 2.31 0.66 4.62 1 7h-5c-0.625-2.38-0.625-2.38-1-5l2-2z" fill="#000204"/>
<path transform="translate(1298,746)" d="m0 0h1c0.18 3.97 0.0763 6.58-2 10-1.44 2.88-1.59 5.82-2 9-0.99-0.33-1.98-0.66-3-1 0.256-1.77 0.53-3.54 0.812-5.31 0.226-1.48 0.226-1.48 0.457-2.99 0.779-2.88 1.54-3.79 3.73-5.7 0.714-2.1 0.714-2.1 1-4z" fill="#00AEF2"/>
<path transform="translate(450,785)" d="m0 0c2.6 1.4 2.6 1.4 5.62 3.38 1 0.647 2.01 1.29 3.04 1.96 0.771 0.549 1.54 1.1 2.34 1.66v1h-6v-2c-1.45-0.402-1.45-0.402-2.94-0.812-1.01-0.392-2.02-0.784-3.06-1.19-0.33-0.99-0.66-1.98-1-3 0.66-0.33 1.32-0.66 2-1z" fill="#00ACF0"/>
<path transform="translate(335,678)" d="m0 0 2 1c1.42 4.26 1.73 8.23 0 12.4-0.33 0.516-0.66 1.03-1 1.56-1-1-1-1-1.1-4.16 0.0174-1.93 0.0174-1.93 0.0352-3.9 0.00902-1.29 0.018-2.58 0.0273-3.91 0.0116-0.999 0.0232-2 0.0352-3.03z" fill="#00AEF2"/>
<path transform="translate(381,612)" d="m0 0c2.82 4 2.01 8.12 1.62 12.8-0.0567 0.793-0.113 1.59-0.172 2.4-0.141 1.95-0.296 3.9-0.453 5.85-1.32 0.33-2.64 0.66-4 1 0.309-1.03 0.619-2.06 0.938-3.12 1.57-6.18 1.72-12.5 2.06-18.9z" fill="#00AEF2"/>
<path transform="translate(592,367)" d="m0 0c-0.33 2.97-0.66 5.94-1 9-1.65 0.33-3.3 0.66-5 1 0-3.74 0.462-5.41 3-8.19 2-1.81 2-1.81 3-1.81z" fill="#00AEF2"/>
<path transform="translate(780 223)" d="m0 0c1.13 0.0206 2.27 0.0412 3.44 0.0625-1 2-1 2-3.55 2.85-1.59 0.383-1.59 0.383-3.2 0.773-1.57 0.391-1.57 0.391-3.17 0.789-2.79 0.531-5.25 0.701-8.08 0.586-0.33-0.66-0.66-1.32-1-2 1.32 0.33 2.64 0.66 4 1v-2c1.7-0.217 1.7-0.217 3.44-0.438 3.99-0.63 4.09-1.55 8.12-1.62z" fill="#00AEF2"/>
<path transform="translate(955,688)" d="m0 0c0.99 0.33 1.98 0.66 3 1v2c0.66 0.33 1.32 0.66 2 1v5c-1.65-0.33-3.3-0.66-5-1v-8z" fill="#00AEF2"/>
</svg>
