<svg id="Calque_1" data-name="Calque 1" xmlns="http://www.w3.org/2000/svg" viewBox="0 0 174.52 48.42"><defs><style>.cls-1{fill:#ffd405;}.cls-2,.cls-3{fill:#0a5da8;}.cls-3,.cls-4{fill-rule:evenodd;}.cls-4{fill:#e6292c;}</style></defs><title>afrique-cables</title><path class="cls-1" d="M13.4,7.9s4.53-2.29,6.26-3.23,2.41-1.29,2.94-1.59,2-1,2.86-.33.75,1.74,2.24,2.6S29.44,7.15,30.37,7a41.1,41.1,0,0,1,5.52,0,6.31,6.31,0,0,1,2.43.75c.63.49,1.18.83,1.76.62a7.46,7.46,0,0,1,2-.13s1.77.32,3.23,3a7.06,7.06,0,0,1,.91,2.46,7.85,7.85,0,0,0,.71,2.95c.37.4.59.77,1,.65s1.29-.46,1.42.63A5.59,5.59,0,0,0,53,23a16.72,16.72,0,0,0,3.24.77c.91,0,4,.88,1.41,2.32s-5.5.87-6.82,3.36-2,4.21-2,4.21S47.93,35,48.68,36s1.8,1.16,1.19,2.08-3.63,7.08-7.37,10.12S36.73,51.5,34.56,50a15.12,15.12,0,0,1-2.29-2.61c-.58-1-1.11-.87-1.28-2a3.49,3.49,0,0,0-1.66-2.72c-1.08-.71-1.75-4-1.71-4.94S28.21,34,26.79,33s-3.23-1.35-3.11-3.38,0-2.64-1.41-3.27-3.15-.92-4-1.5a3,3,0,0,0-2.69-.2,2.71,2.71,0,0,1-3.16-1.51,12,12,0,0,0-1.46-2.27,3.16,3.16,0,0,1-.95-3c.16-2,0-3.48.09-4.22s.07-3.39,1-4.14S13.4,7.9,13.4,7.9" transform="translate(-1.65 -2.46)"/><polygon class="cls-2" points="19.37 18.7 19.37 15.25 13.1 15.25 13.1 30.89 15.95 30.89 15.95 24.75 19.06 24.75 19.06 21.31 15.95 21.31 15.95 18.7 19.37 18.7"/><path class="cls-3" d="M28.73,26.94c1.57-.41,2.4-2.26,2.4-4.42,0-3.34-1.64-4.81-3.81-4.81H23.07V33.35h2.85v-6h0l2.68,6h3.55l-3.45-6.41m-2.81-6.12h.28c.92,0,2,.25,2,1.94a1.71,1.71,0,0,1-2,2h-.28Z" transform="translate(-1.65 -2.46)"/><rect class="cls-2" x="31.75" y="15.25" width="2.85" height="15.64"/><path class="cls-3" d="M8.81,29.51l.67,3.84H12.3L8.46,11.26H5.57L1.65,33.35H4.46l.71-3.84Zm-.71-4.4H5.89l1.11-7H7Z" transform="translate(-1.65 -2.46)"/><path class="cls-2" d="M77.38,17.71v8.23c0,2-.1,4.25-1.79,4.25s-1.8-2.22-1.8-4.25V17.71H71.16V26.5c0,2,0,4,1.06,5.51A4.13,4.13,0,0,0,79,32C80,30.5,80,28.5,80,26.5V17.71Z" transform="translate(-1.65 -2.46)"/><polygon class="cls-2" points="87.53 18.7 87.53 15.25 81.76 15.25 81.76 30.89 87.53 30.89 87.53 27.43 84.39 27.43 84.39 24.75 87.38 24.75 87.38 21.31 84.39 21.31 84.39 18.7 87.53 18.7"/><path class="cls-3" d="M120.85,30.62l.67,2.73h2.8L120.5,17.71h-2.89l-3.9,15.64h2.8l.7-2.73Zm-.71-3.11h-2.2l1.08-5h0Z" transform="translate(-1.65 -2.46)"/><path class="cls-3" d="M133,26.88h.27c.87,0,2.17-.2,2.17,1.69,0,1.72-1.33,1.66-2.11,1.66H133V26.88m1.42,6.47c1.88,0,3.69-1.09,3.69-4.36,0-2.19-.61-3.69-2.07-4V25a3.85,3.85,0,0,0,1.11-3.18c0-3-1.21-4.07-3-4.07h-3.77V33.35h4.05M133,20.82h.19c.71,0,1.53.08,1.53,1.51s-.72,1.51-1.42,1.51H133Z" transform="translate(-1.65 -2.46)"/><polygon class="cls-2" points="145.64 15.25 143 15.25 143 30.89 148.81 30.89 148.81 27.43 145.64 27.43 145.64 15.25"/><polygon class="cls-2" points="160.64 18.7 160.64 15.25 154.86 15.25 154.86 30.89 160.64 30.89 160.64 27.43 157.51 27.43 157.51 24.75 160.48 24.75 160.48 21.31 157.51 21.31 157.51 18.7 160.64 18.7"/><path class="cls-2" d="M175.75,18.58a5.19,5.19,0,0,0-3.18-1.29c-2,0-3.51,2.07-3.51,5.25s1.09,3.69,2.76,4.42c.56.24,1.61.64,1.61,1.78s-.66,1.57-1.29,1.57a3.25,3.25,0,0,1-2.35-1.61L168.66,32a5,5,0,0,0,3.58,1.79,3.55,3.55,0,0,0,2.88-1.48,7.13,7.13,0,0,0,1-4.2c0-2.54-1.09-3.64-2.51-4.28l-.67-.31a1.66,1.66,0,0,1-1.17-1.5A1.21,1.21,0,0,1,173,20.7a2.32,2.32,0,0,1,1.75,1Z" transform="translate(-1.65 -2.46)"/><path class="cls-2" d="M108.72,12.07A7.39,7.39,0,0,0,105,11a7.48,7.48,0,0,0-5.92,3.54,14.16,14.16,0,0,0-2.3,8,13.05,13.05,0,0,0,2.5,8.28A7.51,7.51,0,0,0,105.14,34a8.6,8.6,0,0,0,3.58-1V26.19a4.29,4.29,0,0,1-3.49,2.32c-2.51,0-4.21-2.5-4.21-6s1.66-6.07,4.14-6.07a4.1,4.1,0,0,1,3.56,2.41Z" transform="translate(-1.65 -2.46)"/><path class="cls-4" d="M38.54,21.18c0-5.73,6.6-10.38,14.76-10.38s14.76,4.65,14.76,10.38a8.73,8.73,0,0,1-3.41,6.63l3.66,3.24-1.5,1.64,12.88,6-21.14-5.9,3.07-1.7-.69-1a19.55,19.55,0,0,1-7.63,1.49c-8.16,0-14.76-4.64-14.76-10.39m5.91,0c0-3.63,3.87-6.56,8.65-6.56s8.66,2.93,8.66,6.56S57.88,27.7,53.1,27.7s-8.65-2.94-8.65-6.56" transform="translate(-1.65 -2.46)"/><path class="cls-1" d="M52.67,40s1.52-.29,1.85-.8a14.66,14.66,0,0,1,2.26-1.89s.85,1.69,0,4.95S53.51,44.42,53,43.62a5.35,5.35,0,0,1-1.19-3.55Z" transform="translate(-1.65 -2.46)"/></svg>