<?xml version="1.0" encoding="utf-8"?>
<!-- Generator: Adobe Illustrator 24.0.0, SVG Export Plug-In . SVG Version: 6.00 Build 0)  -->
<svg version="1.1" id="Calque_1" xmlns="http://www.w3.org/2000/svg" xmlns:xlink="http://www.w3.org/1999/xlink" x="0px" y="0px"
	 viewBox="0 0 107.9 107.9" style="enable-background:new 0 0 107.9 107.9;" xml:space="preserve">
<style type="text/css">
	.st0{fill:#0466A5;}
	.st1{fill:none;stroke:#FFFFFF;stroke-width:0.73;stroke-miterlimit:10;}
	.st2{fill:#FFFFFF;}
</style>
<path class="st0" d="M107.4,96.9c0,5.9-4.8,10.7-10.6,10.7c0,0,0,0,0,0H11c-5.9,0-10.7-4.8-10.7-10.7l0,0V11.1
	C0.4,5.2,5.1,0.5,11,0.5h85.8c5.9,0,10.7,4.7,10.7,10.6c0,0,0,0,0,0V96.9z"/>
<path class="st1" d="M107.4,96.9c0,5.9-4.8,10.7-10.6,10.7c0,0,0,0,0,0H11c-5.9,0-10.7-4.8-10.7-10.7l0,0V11.1
	C0.4,5.2,5.1,0.5,11,0.5h85.8c5.9,0,10.7,4.7,10.7,10.6c0,0,0,0,0,0V96.9z"/>
<polygon class="st2" points="47.3,45.8 42,40.2 45.2,40.2 48.6,44.1 52.1,40.2 54.8,40.2 49.6,45.7 49.6,50.3 47.3,50.3 "/>
<path class="st2" d="M56.6,40.2h1.6l7.1,5.9c0.4,0.3,0.8,0.7,1.2,1.1c-0.1-0.8-0.1-1.4-0.1-1.7v-5.3h2.1v10.1h-1.6l-7.4-6.2
	c-0.3-0.3-0.6-0.5-0.8-0.8c0.1,0.8,0.1,1.3,0.1,1.6v5.5h-2.1V40.2z"/>
<path class="st2" d="M70.1,40.2h1.7l7,5.9c0.4,0.3,0.8,0.7,1.2,1.1c-0.1-0.8-0.1-1.4-0.1-1.7v-5.3H82v10.1h-1.6L73,44.1
	c-0.3-0.3-0.6-0.5-0.8-0.8c0.1,0.8,0.1,1.3,0.1,1.6v5.5h-2.1V40.2z"/>
<path class="st2" d="M89.4,40.2h2.3l5.8,10.1h-2.6l-1.2-2.2h-6.4l-1.2,2.2h-2.3L89.4,40.2z M92.6,46.3l-2.2-4.2l-2.2,4.1L92.6,46.3z
	"/>
<path class="st2" d="M45,54.8v-0.3h1.3h1.2v0.3c-0.2,0-0.4,0-0.6,0.1c-0.1,0-0.1,0-0.2,0.1c0,0.1-0.1,0.3-0.1,0.4c0,0,0,0.5,0,1.2
	v0.6c0.6,0,1.2,0,2.1,0c0.6,0,1.1,0,1.5,0v-0.6c0-0.4,0-0.8,0-1.2c0-0.2,0-0.3-0.1-0.5c0-0.1-0.1-0.1-0.2-0.1
	c-0.2-0.1-0.4-0.1-0.6-0.1v-0.3h1.3H52v0.3c-0.2,0-0.4,0-0.6,0.1c-0.1,0-0.1,0-0.2,0.1c-0.1,0.1-0.1,0.3-0.1,0.4c0,0,0,0.5,0,1.2v2
	c0,0.4,0,0.8,0,1.1c0,0.2,0,0.3,0.1,0.5c0,0.1,0.1,0.1,0.2,0.1c0.2,0,0.4,0.1,0.6,0v0.3c-0.6,0-1,0-1.4,0s-0.8,0-1.2,0v-0.3
	c0.2,0,0.4,0,0.6,0c0.1,0,0.1,0,0.2-0.1c0.1-0.1,0.1-0.3,0.1-0.4c0-0.1,0-0.5,0-1.2v-1h-1.8h-1.7v1c0,0.4,0,0.8,0,1.1
	c0,0.2,0,0.3,0.1,0.5c0,0.1,0.1,0.1,0.2,0.1c0.2,0,0.4,0,0.6,0v0.3c-0.4,0-0.8,0-1.2,0s-0.9,0-1.3,0v-0.3c0.2,0,0.4,0,0.6,0
	c0.1,0,0.1,0,0.2-0.1c0-0.1,0.1-0.3,0.1-0.4c0-0.1,0-0.5,0-1.2v-2c0-0.4,0-0.8,0-1.2c0-0.2,0-0.3-0.1-0.5c0-0.1-0.1-0.1-0.2-0.1
	C45.4,54.8,45.2,54.8,45,54.8"/>
<path class="st2" d="M52.4,58.7c-0.1-1.2,0.8-2.1,2-2.2c0.1,0,0.1,0,0.2,0c0.5,0,1.1,0.2,1.5,0.5c0.4,0.4,0.6,0.9,0.6,1.5
	c0,0.4-0.1,0.8-0.3,1.2c-0.2,0.3-0.5,0.6-0.8,0.8c-0.4,0.2-0.8,0.3-1.2,0.3c-0.3,0-0.6,0-0.8-0.2c-0.2-0.1-0.4-0.3-0.6-0.4
	c-0.1-0.2-0.2-0.3-0.3-0.5C52.5,59.4,52.4,59,52.4,58.7 M53.2,58.4c0,0.4,0.1,0.7,0.2,1.1c0.1,0.3,0.3,0.6,0.5,0.8
	c0.2,0.2,0.5,0.3,0.7,0.3c0.3,0,0.6-0.1,0.8-0.4c0.2-0.4,0.3-0.8,0.3-1.2c0-0.4-0.1-0.8-0.2-1.2c-0.1-0.3-0.3-0.5-0.5-0.7
	c-0.2-0.1-0.4-0.2-0.7-0.2c-0.3,0-0.6,0.1-0.9,0.4C53.3,57.5,53.2,57.9,53.2,58.4"/>
<path class="st2" d="M57.2,60.7v-0.3h0.4c0,0,0.1,0,0.2,0l0.1-0.1c0-0.1,0.1-0.2,0.1-0.3c0,0,0-0.5,0-1.2V57c0-0.5,0-1,0-1.5
	c0-0.2,0-0.4,0-0.6l-0.1-0.1c-0.2,0-0.4,0-0.6,0v-0.3c0.5,0,0.9-0.1,1.3-0.3h0.1h0.1c0,0,0,0,0,0.1c0,0,0,0.1,0,0.1v0.1
	c0,0.5,0,1,0,1.3v2.9c0,0.8,0,1.2,0,1.2c0,0.1,0,0.2,0,0.3c0,0,0,0,0,0.1c0,0,0.1,0,0.1,0h0.5v0.3c-0.4,0-0.7,0-1,0
	S57.6,60.7,57.2,60.7"/>
<path class="st2" d="M62.4,54.8v-0.2c0.3,0,0.5-0.1,0.8-0.1l0.6-0.2h0.1c0,0.3,0,0.7,0,1.4v3.4c0,0.3,0,0.5,0,0.8
	c0,0.1,0,0.3,0.1,0.4c0,0,0.1,0.1,0.1,0.1c0.2,0,0.4,0.1,0.5,0.1v0.2c-0.3,0-0.6,0-0.7,0c-0.1,0-0.4,0-0.8,0c0-0.2,0-0.5,0-0.8
	l-0.5,0.4c-0.2,0.2-0.3,0.3-0.4,0.4c-0.2,0.1-0.4,0.1-0.6,0.1c-0.3,0-0.6-0.1-0.9-0.2c-0.3-0.2-0.5-0.4-0.6-0.7
	c-0.1-0.3-0.2-0.7-0.2-1c0-0.3,0-0.5,0.1-0.8c0.1-0.2,0.2-0.4,0.3-0.6c0.2-0.1,0.3-0.3,0.5-0.4c0.2-0.1,0.4-0.2,0.7-0.3
	c0.2-0.1,0.4-0.1,0.6-0.1c0.2,0,0.3,0,0.5,0.1c0.2,0.1,0.3,0.1,0.5,0.2v-1.1c0-0.2,0-0.5,0-0.7c0,0,0,0-0.1-0.1
	C62.9,54.8,62.7,54.8,62.4,54.8 M63.2,57.5c-0.2-0.2-0.4-0.3-0.6-0.5c-0.2-0.1-0.4-0.1-0.6-0.1c-0.2,0-0.4,0.1-0.6,0.2
	c-0.2,0.1-0.4,0.3-0.5,0.5c-0.1,0.3-0.2,0.6-0.2,0.9c0,0.4,0.1,0.9,0.4,1.2c0.2,0.3,0.6,0.4,0.9,0.4c0.2,0,0.3,0,0.5-0.1
	c0.2-0.1,0.3-0.2,0.4-0.4c0.1-0.2,0.2-0.3,0.2-0.5c0-0.1,0-0.4,0-0.9L63.2,57.5z"/>
<path class="st2" d="M65.1,57.1v-0.2c0.5,0,1-0.2,1.4-0.4l0.1,0.1c0,0.6,0,1.1,0,1.4v0.8c0,0.8,0,1.2,0,1.2c0,0.1,0,0.2,0,0.3
	c0,0,0,0,0,0.1c0,0,0.1,0,0.1,0h0.5v0.3c-0.4,0-0.8,0-1.1,0s-0.6,0-1.1,0v-0.2h0.4c0,0,0.1,0,0.2,0c0,0,0.1,0,0.1-0.1
	c0-0.1,0.1-0.2,0.1-0.3c0,0,0-0.5,0-1.2v-0.8c0-0.3,0-0.5,0-0.8c0,0-0.1-0.1-0.1-0.1C65.4,57.2,65.2,57.2,65.1,57.1 M66.1,54.7
	c0.1,0,0.3,0.1,0.3,0.2c0.1,0.1,0.1,0.2,0.1,0.3c0,0.1,0,0.3-0.1,0.3c-0.1,0.1-0.2,0.1-0.3,0.1c-0.1,0-0.3,0-0.3-0.1
	c-0.1-0.1-0.2-0.2-0.2-0.3c0-0.1,0.1-0.2,0.2-0.3C65.8,54.7,65.9,54.7,66.1,54.7"/>
<path class="st2" d="M67.5,60.7v-0.3H68c0,0,0.1,0,0.1,0l0.1-0.1c0-0.1,0-0.2,0-0.3c0,0,0-0.5,0-1.2v-0.5c0-0.2,0-0.5,0-0.8
	c0-0.1,0-0.2,0-0.3c0,0-0.1-0.1-0.1-0.1c-0.2,0-0.4,0-0.6,0v-0.2c0.4-0.1,0.8-0.2,1.2-0.4l0.1,0l0,0c0,0,0,0,0,0.1v0.1
	c0,0.1,0,0.3,0,0.7l0.8-0.7c0.2-0.1,0.4-0.1,0.7-0.1c0.2,0,0.5,0.1,0.7,0.2c0.2,0.1,0.3,0.2,0.5,0.3c0.1,0.2,0.2,0.4,0.2,0.5
	c0,0.4,0,0.7,0,1.1v0.8c0,0.3,0,0.5,0,0.8c0,0.1,0,0.1,0.1,0.2c0,0,0.1,0.1,0.1,0.1h0.5v0.3c-0.3,0-0.5,0-0.7,0s-0.4,0-0.8,0
	c0.1-0.7,0.1-1.2,0.1-1.3v-0.7c0-0.3,0-0.6,0-0.9c0-0.2-0.2-0.4-0.3-0.5c-0.4-0.2-0.8-0.2-1.2,0c-0.2,0.1-0.3,0.2-0.4,0.4
	c-0.1,0.2-0.1,0.4-0.1,0.7v0.5c0,0.7,0,1.2,0,1.2c0,0.1,0,0.2,0,0.3c0,0,0,0,0,0.1c0,0,0.1,0,0.1,0h0.5v0.3c-0.3,0-0.7,0-1,0
	s-0.6,0-1.2,0"/>
<path class="st2" d="M77.3,56.9L77.3,56.9c-0.1,0.2-0.2,0.3-0.2,0.4h-0.8c0.1,0.2,0.1,0.3,0.1,0.5c0,0.2-0.1,0.4-0.2,0.6
	c-0.1,0.2-0.3,0.4-0.5,0.5c-0.2,0.1-0.4,0.3-0.7,0.3c-0.2,0-0.4,0.1-0.7,0c-0.1,0.1-0.2,0.2-0.3,0.3c0,0.1,0,0.1,0,0.2
	c0,0.1,0,0.1,0.1,0.2c0.1,0.1,0.1,0.1,0.2,0.1c0.2,0,0.4,0,0.7,0h0.9c0.2,0,0.5,0,0.7,0.1c0.2,0.1,0.3,0.2,0.4,0.4
	c0.1,0.2,0.1,0.4,0.1,0.6c0,0.3-0.1,0.6-0.3,0.9c-0.2,0.3-0.5,0.6-0.9,0.7c-0.4,0.2-0.8,0.3-1.3,0.3c-0.3,0-0.7-0.1-1-0.2
	c-0.2-0.1-0.5-0.3-0.6-0.5c-0.1-0.2-0.2-0.4-0.2-0.7c0-0.1,0-0.2,0-0.3c0-0.1,0.1-0.2,0.2-0.3c0.3-0.1,0.5-0.3,0.8-0.4
	c-0.2,0-0.3-0.1-0.4-0.2c-0.1-0.1-0.1-0.1-0.1-0.2c0-0.2,0.1-0.3,0.1-0.5c0.1-0.1,0.4-0.3,0.7-0.5c-0.2-0.1-0.4-0.1-0.6-0.3
	c-0.1-0.1-0.3-0.2-0.3-0.4C73.1,58.4,73,58.2,73,58c0-0.3,0.1-0.5,0.2-0.8c0.2-0.3,0.5-0.5,0.8-0.6c0.3-0.1,0.7-0.2,1-0.2
	c0.2,0,0.4,0,0.6,0.1c0.2,0.1,0.3,0.2,0.5,0.3L77.3,56.9 M75.1,60.7h-0.8c-0.1,0-0.1,0-0.2,0.1c-0.1,0.1-0.2,0.2-0.4,0.3
	c0,0.1-0.1,0.1-0.1,0.2c-0.1,0.2-0.1,0.3-0.1,0.5c0,0.3,0.1,0.6,0.3,0.8c0.3,0.2,0.6,0.3,1,0.3c0.3,0,0.6-0.1,0.8-0.2
	c0.2-0.1,0.4-0.3,0.6-0.5c0.1-0.2,0.2-0.4,0.2-0.6c0-0.1,0-0.3-0.1-0.4c0-0.1-0.1-0.1-0.2-0.2c-0.1-0.1-0.2-0.1-0.3-0.1L75.1,60.7
	 M73.8,57.8c0,0.2,0,0.4,0.1,0.6c0.1,0.2,0.2,0.3,0.3,0.4c0.1,0.1,0.3,0.1,0.5,0.1c0.2,0,0.5-0.1,0.7-0.2c0.2-0.2,0.3-0.5,0.3-0.8
	c0-0.3-0.1-0.6-0.3-0.9c-0.2-0.2-0.4-0.3-0.7-0.3c-0.3,0-0.5,0.1-0.7,0.3C73.8,57.3,73.7,57.5,73.8,57.8"/>
<rect x="16.5" y="71.6" class="st2" width="10.7" height="3.3"/>
<path class="st2" d="M27.3,75H16.5v-3.4h10.8V75z M16.5,74.9h10.7v-3.3H16.5V74.9z"/>
<rect x="10.1" y="74.6" class="st2" width="32" height="0.8"/>
<path class="st2" d="M28.8,80.4h-5.3c-0.3,0-0.4-0.3-0.4-0.5c0-0.2,0.2-0.4,0.4-0.4h5.3c0.3,0,0.4,0.3,0.4,0.5
	C29.1,80.2,29,80.4,28.8,80.4"/>
<path class="st2" d="M37.5,79.2h-5.8c-0.2,0-0.4-0.2-0.4-0.4c0,0,0,0,0,0c0-0.2,0.2-0.4,0.4-0.4c0,0,0,0,0,0h5.8
	c0.2,0,0.4,0.2,0.4,0.4l0,0C38,79,37.8,79.2,37.5,79.2L37.5,79.2"/>
<path class="st2" d="M35.9,83.3h-4.6c-0.3,0-0.6-0.2-0.6-0.5c0,0,0,0,0,0c0-0.3,0.3-0.6,0.6-0.6h4.6c0.3,0,0.6,0.3,0.6,0.6
	C36.5,83,36.2,83.3,35.9,83.3"/>
<path class="st2" d="M16.5,36.7c-0.8,0-1.7,0.1-2.5,0.3c-0.5,0.1-0.8,0.1-0.8-0.3c0.1-0.3,0.2-0.6,0.3-0.9c0.1-0.2,0.2-0.5,0.3-0.5
	c0.3,0,0.6,0,0.9,0c0.4,0,3.5,0,4,0c0.5-0.1,0.9,0,1.3,0.4c3.5,3.9,6.8,8,9.8,12.3c0.4,0.5,1,0.8,1.6,0.7c0.7,0,2.4-0.1,2.4-0.1
	l0.9,1.7c-1.4-0.1-2.9-0.2-4.3-0.2c-0.8,0.1-0.9,0.3-1.5,1.4s-6.9,12.4-9.9,17c-0.3,0.5-0.7,0.9-0.9,0.9s-0.4-0.3-0.3-0.8
	s2.9-14.8,2.9-15.3c0.2,0,0.5,0,0.7-0.1c0.6-0.2,0.8,0.3,0.8,0.8c-0.3,2-0.8,4-1.4,5.9c-0.4,1.3-1.2,4.3-1.2,4.3
	c1.7-2.6,3.2-5.4,4.5-8.2c1-2.2,2-4.8,1.1-5.7c-0.3-0.3-0.8-0.4-1.2-0.5c-0.3,0-1.9,0-2.5-0.9c-0.3-0.5-0.6-1-0.7-1.6
	c-0.2-0.9-0.6-3.2-1.2-5.4s-1.3-4.2-1.5-4.7C17.7,36.6,17.1,36.7,16.5,36.7"/>
<path class="st2" d="M18.2,69.4c-0.1,0-0.2,0-0.3-0.1c-0.1-0.2-0.2-0.5-0.1-0.7c0-0.2,0.6-3.3,1.3-6.6c0.8-4,1.6-8.4,1.6-8.7l0,0
	l0,0c0.2,0,0.5,0,0.7-0.1c0.2-0.1,0.5,0,0.7,0.1c0.2,0.2,0.2,0.5,0.2,0.7c-0.3,2-0.8,4-1.4,5.9c-0.3,1.1-0.9,3.3-1.2,4
	c1.6-2.6,3.1-5.2,4.4-8c1-2.3,2-4.8,1.1-5.6c-0.3-0.3-0.8-0.4-1.2-0.5h-0.1C22.9,50,22,49.7,21.4,49c-0.3-0.5-0.5-1-0.6-1.6
	c0-0.2-0.1-0.5-0.2-0.8c-0.2-1.2-0.6-2.9-1-4.6c-0.4-1.6-0.9-3.2-1.5-4.7c-0.2-0.4-0.6-0.6-1-0.6h-0.5c-0.8,0-1.7,0.1-2.5,0.3
	c-0.2,0-0.3,0.1-0.5,0.1c-0.1,0-0.2,0-0.3-0.1c-0.1-0.1-0.1-0.2-0.1-0.3c0.1-0.3,0.2-0.6,0.3-0.8l0-0.1c0,0,0-0.1,0-0.1
	c0.1-0.2,0.2-0.3,0.3-0.4c0.1,0,0.2-0.1,0.3,0c0.2,0,0.3,0,0.5,0h1c1.1,0,2.8,0,3.1,0l0,0c0.1,0,0.2,0,0.4,0c0.4,0,0.7,0.1,1,0.4
	c3.5,3.9,6.8,8,9.8,12.3c0.4,0.5,1,0.7,1.6,0.7h0.1c0.7,0,2.3-0.1,2.3-0.1l0,0l0,0l1,1.8h0c0,0-2.3-0.2-3.6-0.2c-0.2,0-0.4,0-0.7,0
	c-0.8,0.1-0.9,0.2-1.5,1.4s-6.9,12.4-9.9,17C18.8,68.8,18.5,69.3,18.2,69.4 M20.8,53.3c-0.1,0.5-0.9,4.7-1.6,8.7
	c-0.6,3.3-1.2,6.4-1.2,6.6c-0.1,0.2,0,0.5,0.1,0.7c0,0.1,0.1,0.1,0.2,0.1c0.2,0,0.5-0.3,0.9-0.9c2.9-4.6,9.3-15.9,9.9-17
	s0.7-1.3,1.6-1.4c0.2,0,0.4,0,0.7,0c1.2,0,3.2,0.2,3.6,0.2l-0.9-1.6c-0.2,0-1.6,0.1-2.3,0.1h-0.1c-0.7,0.1-1.3-0.2-1.7-0.7
	c-3-4.3-6.3-8.4-9.8-12.3c-0.3-0.3-0.8-0.5-1.2-0.4l0,0c-0.4,0-2,0.1-3.1,0.1h-1.1c-0.2,0-0.3,0-0.5,0c-0.2,0-0.2,0-0.3,0
	c-0.1,0.1-0.2,0.3-0.3,0.4c0,0,0,0.1,0,0.1V36c-0.1,0.2-0.2,0.5-0.3,0.8c0,0.1,0,0.2,0.1,0.2c0.1,0.1,0.3,0.1,0.7,0
	c0.8-0.2,1.7-0.3,2.5-0.3h0.1c0.5-0.1,1.1,0.1,1.3,0.6c0.6,1.6,1.1,3.1,1.5,4.7c0.5,1.7,0.8,3.4,1,4.6c0.1,0.3,0.1,0.6,0.2,0.8
	c0.1,0.6,0.4,1.1,0.7,1.6c0.6,0.6,1.5,1,2.4,0.9H24c0.5,0,0.9,0.2,1.2,0.5c0.9,0.8,0,3.3-1.1,5.7c-1.3,2.8-2.8,5.6-4.5,8.2h-0.1
	c0,0,0.9-3,1.2-4.3c0.6-1.9,1.1-3.9,1.4-5.9c0-0.2,0-0.5-0.2-0.7c-0.2-0.1-0.4-0.2-0.6-0.1c-0.2,0.1-0.4,0.1-0.6,0.1L20.8,53.3"/>
<path class="st2" d="M38.5,35.3c0.5,0,1.1-0.1,1.1,0.1c0,0.2,0,0.4-0.2,0.5l-0.7,0.9c-0.7-0.1-1.3-0.1-2-0.1
	c-0.5,0.1-0.7,0.6-0.8,0.9c-1.2,3-2.6,6-4.1,8.8c-0.4,0.8-0.5,0.9-0.6,0.9S31,47.1,31,46.8s0.6-2,0.7-2.6c0-0.4,0.2-0.7,0.3-1
	c0.7-1.5,1.2-3,1.6-4.6c0.1-0.4-0.2-0.7-0.6-0.8c-0.1,0-0.1,0-0.2,0c-0.5,0.1-0.9,0.3-1.2,0.2c-0.2-0.1-0.3-0.2-0.4-0.4
	c-0.6-0.7-1.3-1.2-2.2-1.4c-0.8-0.3-0.5-0.6,0-0.6s4.8,0,5.9,0L38.5,35.3"/>
<path class="st2" d="M31.1,47.4c0,0-0.1,0-0.1,0c-0.1-0.2-0.1-0.3-0.1-0.5c0-0.2,0.2-0.6,0.3-1.1s0.3-1.2,0.4-1.5
	c0-0.4,0.2-0.7,0.3-1c0.7-1.5,1.3-3,1.7-4.6c0-0.2-0.1-0.4-0.2-0.6c-0.1-0.2-0.4-0.2-0.6-0.2l-0.4,0.1C32.3,38,32,38,31.8,38
	c-0.1,0-0.1,0-0.2,0c-0.2-0.1-0.3-0.2-0.4-0.4l0,0c-0.5-0.7-1.3-1.2-2.2-1.5c-0.5-0.2-0.5-0.4-0.5-0.5s0.2-0.2,0.5-0.2h0.3
	c1,0,4.7,0,5.7,0s3-0.1,3.4-0.1h0.3h0.4c0.2,0,0.4,0,0.5,0.2c0,0.2,0,0.4-0.2,0.5c0,0,0,0,0,0l-0.8,0.9l0,0c0,0-0.9-0.1-1.5-0.1
	c-0.2,0-0.3,0-0.5,0c-0.5,0.1-0.7,0.6-0.8,0.9c0,0,0,0.1-0.1,0.2c-1.2,2.9-2.5,5.8-4,8.6C31.4,47.3,31.3,47.4,31.1,47.4 M33,37.8
	c0.2,0,0.4,0.1,0.5,0.2c0.2,0.2,0.2,0.4,0.2,0.6c-0.4,1.6-0.9,3.1-1.6,4.6c-0.2,0.3-0.3,0.6-0.3,1c-0.1,0.3-0.2,1-0.4,1.5
	s-0.3,0.9-0.3,1.1c-0.1,0.1-0.1,0.3,0,0.5h0.1c0.1,0,0.2-0.1,0.6-0.8c1.5-2.8,2.8-5.7,4-8.6l0.1-0.2c0.1-0.3,0.3-0.8,0.8-1
	c0.2,0,0.3-0.1,0.5-0.1c0.6,0,1.4,0.1,1.5,0.1l0.7-0.9l0,0c0.1-0.1,0.2-0.2,0.1-0.4s-0.2-0.1-0.4-0.1h-0.4h-0.3
	c-0.4,0-2.3,0.1-3.4,0.1s-4.7,0-5.7,0h-0.3c-0.2,0-0.4,0.1-0.4,0.2s0.1,0.3,0.5,0.4c0.9,0.3,1.6,0.8,2.2,1.5l0,0
	c0.1,0.1,0.2,0.3,0.4,0.4c0.1,0,0.1,0,0.2,0c0.2,0,0.4,0,0.6-0.1l0.4-0.1h0.1"/>
<path class="st2" d="M44.2,30c0.1-0.3,0.1-0.4-0.2-0.4h-0.2c0,0,0-0.1,0-0.1c0,0,0,0,0,0h1.1c0,0,0,0.1,0,0.1h-0.1
	c-0.2,0-0.2,0.1-0.3,0.4l-0.2,0.5c0,0.1,0,0.1,0,0.1c0,0,0,0.1,0,0.1c-0.3,0.1-0.7,0.2-1,0.2c-0.6,0.1-1.2-0.4-1.3-1
	c0-0.1,0-0.1,0-0.2c0-0.6,0.3-1.1,0.8-1.4c0.4-0.4,1-0.6,1.6-0.6c0.3,0,0.5,0,0.8,0.1C45.1,28,45,28.2,45,28.4c0,0-0.1,0-0.1,0
	c0,0,0,0,0,0c0.1-0.4-0.1-0.6-0.5-0.6c-0.5,0-0.9,0.2-1.2,0.5c-0.4,0.4-0.6,0.9-0.6,1.5c-0.1,0.5,0.2,0.9,0.7,1c0.1,0,0.2,0,0.2,0
	c0.3,0,0.5,0,0.6-0.3L44.2,30z"/>
<path class="st2" d="M45.7,28.9c-0.2,0-0.4,0.2-0.5,0.4c0,0.1,0,0.1,0.1,0.1s0.2-0.2,0.3-0.2s0,0,0,0.1c-0.1,0.5-0.4,1.3-0.5,1.5
	s0.1,0.1,0.2,0.1s0.1,0,0.1-0.1c0.2-0.5,0.5-1,0.8-1.5c0.1-0.1,0.1-0.1,0.2-0.1s0.1,0,0.1,0.2s0.1,0.1,0.1,0
	c0.1-0.1,0.1-0.2,0.1-0.3c0-0.1-0.1-0.2-0.2-0.2c0,0,0,0,0,0c-0.1,0-0.3,0.1-0.3,0.2c-0.2,0.3-0.4,0.5-0.5,0.8l0,0l0.2-0.6
	C45.9,29.2,46,28.9,45.7,28.9"/>
<path class="st2" d="M47.8,29c0.2,0,0.2,0.2,0.2,0.3c-0.1,0.4-0.2,0.8-0.4,1.2c-0.2,0.2-0.3,0.2-0.4,0.2s-0.2-0.1-0.2-0.3
	c0.1-0.4,0.2-0.8,0.5-1.2C47.6,29.1,47.7,29,47.8,29 M47.8,28.9c-0.2,0-0.5,0.1-0.7,0.3c-0.3,0.3-0.5,0.6-0.5,1
	c0,0.4,0.2,0.6,0.5,0.6c0.3,0,0.5-0.1,0.7-0.3c0.3-0.3,0.5-0.7,0.5-1.1C48.2,29.1,48.1,28.8,47.8,28.9"/>
<path class="st2" d="M49,30.4c0,0.1,0,0.2,0,0.2s0.3-0.2,0.5-0.4c0.3-0.4,0.6-0.8,0.8-1.3c0.1,0,0.2,0,0.2,0.1s-0.4,0.9-0.5,1.5
	c0,0.1,0,0.1,0,0.1s0.3-0.2,0.5-0.4s0.1,0,0.1,0.1c-0.2,0.3-0.5,0.5-0.8,0.6c-0.1,0-0.2-0.1-0.1-0.2l0.3-0.9l0,0
	c-0.3,0.4-0.9,1-1.2,1s-0.2-0.2-0.1-0.4l0.4-1.1c0-0.1,0-0.1,0-0.1s-0.3,0.2-0.5,0.3c0,0-0.1,0-0.1,0c0,0,0,0,0,0
	c0.2-0.3,0.5-0.5,0.8-0.6c0.1,0,0.2,0,0.1,0.1L49,30.4z"/>
<path class="st2" d="M52,28.7c-0.1-0.1-0.2-0.1-0.3-0.1L51.6,29c-0.2,0-0.4,0.1-0.6,0.3c0,0,0,0.1,0.1,0.1c0.2-0.1,0.3-0.1,0.5-0.2
	l-0.9,2.5c-0.1,0.2-0.5,0.3-0.7,0.3h-0.1c-0.1,0-0.1,0.1,0,0.1c0,0,0,0,0,0c0.3,0,0.7,0,1,0c0,0,0-0.1,0-0.1H51
	c-0.2,0-0.2-0.1,0-0.4l0.2-0.6c0,0,0-0.1,0.1-0.1c0,0,0.1,0,0.1,0c0.2,0,0.5-0.1,0.7-0.3c0.4-0.3,0.6-0.7,0.6-1.1
	c0-0.4-0.4-0.5-0.6-0.5h-0.2L52,28.7z M51.8,29.1H52c0.2,0,0.4,0.1,0.4,0.3c0,0,0,0,0,0.1c0,0.3-0.1,0.6-0.3,0.9
	c-0.1,0.2-0.3,0.3-0.5,0.4c-0.1,0-0.1-0.1-0.2-0.1c0,0,0-0.1,0-0.1L51.8,29.1z"/>
<path class="st2" d="M54.1,29c0.1,0,0.1,0,0.1,0.1c0,0,0,0,0,0c0,0.1-0.1,0.2-0.2,0.3c-0.2,0.2-0.4,0.3-0.6,0.3
	c0.1-0.2,0.2-0.4,0.3-0.5C53.9,29.1,54.1,29,54.1,29 M54.2,28.9c-0.2,0-0.4,0.1-0.6,0.2c-0.4,0.3-0.7,0.8-0.7,1.3
	c0,0.2,0.1,0.5,0.4,0.5c0.3,0,0.6-0.2,0.8-0.4c0,0,0-0.1,0-0.1c0,0,0,0,0,0c-0.2,0.2-0.3,0.3-0.5,0.3c-0.1,0-0.2-0.1-0.2-0.2
	c0,0,0,0,0,0c0-0.1,0-0.3,0.1-0.4c0.7-0.2,1.1-0.4,1.1-0.8C54.5,29,54.4,28.9,54.2,28.9"/>
<path class="st2" d="M59.1,27.8c-0.1,0.2-0.2,0.5-0.2,0.6s-0.1,0-0.1,0c0.1-0.4,0-0.6-0.5-0.6c-0.5,0-0.9,0.2-1.2,0.5
	c-0.4,0.4-0.6,0.9-0.6,1.4c0,0.7,0.3,1,0.9,1c0.4,0,0.8-0.3,1-0.7h0.1c-0.1,0.2-0.2,0.5-0.3,0.7c-0.1,0-0.2,0-0.4,0
	c-0.2,0-0.3,0.1-0.5,0.1c-0.7,0.1-1.2-0.4-1.3-1.1c0-0.1,0-0.1,0-0.2c0-0.5,0.3-1.1,0.7-1.4c0.4-0.4,1-0.6,1.6-0.6
	C58.5,27.5,58.8,27.6,59.1,27.8"/>
<path class="st2" d="M59.7,28.1c0.1-0.3,0.1-0.4,0.1-0.4l-0.1-0.1c0,0,0,0,0-0.1c0.2-0.1,0.4-0.1,0.5-0.1l0,0
	c-0.1,0.3-0.2,0.7-0.3,1l-0.5,1.4l0,0c0.2-0.3,0.5-0.6,0.8-0.8c0.1-0.1,0.3-0.2,0.4-0.2c0.2,0,0.3,0.1,0.3,0.3
	c0,0.4-0.2,0.8-0.4,1.1c-0.1,0.1-0.2,0.3-0.3,0.4c-0.1,0.1-0.2,0.2-0.3,0.2c-0.2,0-0.2-0.1-0.2-0.1c0-0.1,0.1-0.1,0.1-0.1l0,0
	c0,0,0.1,0.1,0.1,0.1c0.1,0,0.1-0.1,0.2-0.2c0.2-0.4,0.3-0.8,0.4-1.2c0-0.1,0-0.1-0.1-0.1c-0.1,0-0.2,0.1-0.3,0.1
	c-0.2,0.2-0.4,0.4-0.6,0.6c-0.2,0.3-0.4,0.7-0.6,1c0,0,0,0.1-0.1,0.1c0,0-0.2,0-0.2-0.1L59.7,28.1z"/>
<path class="st2" d="M62.8,28.8c0.1,0,0.2,0,0.2,0.1c-0.1,0.2-0.5,1.2-0.6,1.6c0,0.1,0,0.1,0,0.1s0.2-0.1,0.5-0.3c0,0,0.1,0,0.1,0.1
	c-0.2,0.3-0.5,0.5-0.8,0.5c-0.1,0-0.1,0-0.1-0.1c0,0,0,0,0,0c0-0.1,0-0.1,0.1-0.2l0.2-0.4l0,0c-0.2,0.3-0.6,0.6-1,0.7
	c-0.1,0-0.2-0.1-0.2-0.3c0.1-0.3,0.2-0.6,0.4-0.9c0.1-0.2,0.3-0.4,0.6-0.6c0.1-0.1,0.3-0.1,0.4-0.1c0.1,0,0.1,0,0.1,0
	c0,0,0.1,0.1,0.1,0.1L62.8,28.8z M62,29.3c-0.3,0.3-0.5,0.8-0.6,1.2c0,0.1,0,0.1,0.1,0.1s0.2,0,0.5-0.3c0.3-0.3,0.5-0.6,0.6-1
	c0-0.1-0.1-0.2-0.2-0.2C62.2,29.1,62.1,29.2,62,29.3"/>
<path class="st2" d="M64.8,28.8c0.1,0,0.2,0,0.2,0.1c-0.1,0.2-0.5,1.2-0.6,1.6c0,0.1,0,0.1,0,0.1s0.2-0.1,0.5-0.3c0,0,0.1,0,0.1,0.1
	c-0.2,0.3-0.5,0.5-0.8,0.5c-0.1,0-0.1,0-0.1-0.1c0,0,0,0,0,0c0-0.1,0-0.1,0-0.2l0.2-0.4l0,0c-0.2,0.3-0.6,0.6-1,0.7
	c-0.1,0-0.2-0.1-0.2-0.3c0.1-0.3,0.2-0.6,0.4-0.9c0.2-0.3,0.4-0.5,0.6-0.6c0.1-0.1,0.3-0.1,0.4-0.1c0,0,0.1,0,0.1,0
	c0,0,0.1,0.1,0.1,0.1L64.8,28.8z M64,29.3c-0.3,0.3-0.5,0.8-0.6,1.2c0,0.1,0,0.1,0.1,0.1s0.2,0,0.5-0.3c0.3-0.3,0.5-0.6,0.6-1
	c0-0.1-0.1-0.2-0.2-0.2C64.2,29.1,64.1,29.2,64,29.3"/>
<path class="st2" d="M66.8,29c0.1,0,0.1,0.1,0.2,0.1c0,0,0,0,0,0c-0.1,0.4-0.3,0.9-0.6,1.2c-0.1,0.2-0.3,0.3-0.4,0.3
	c-0.1,0-0.2-0.1-0.2-0.3c0.1-0.4,0.2-0.7,0.5-0.9C66.4,29.2,66.6,29,66.8,29 M66.5,28c0.1-0.2,0.1-0.4,0.2-0.6l0,0
	c-0.2,0-0.4,0-0.6,0.1c0,0,0,0,0,0.1l0.1,0.1c0.1,0,0,0.1,0,0.4l-0.6,1.5c-0.1,0.3-0.2,0.6-0.2,0.9c0,0.3,0.1,0.4,0.4,0.4
	c0.3,0,0.7-0.2,0.9-0.5c0.3-0.3,0.5-0.7,0.6-1.1c0-0.2-0.1-0.4-0.3-0.4c0,0,0,0-0.1,0c-0.4,0-0.7,0.3-1,0.8L66.5,28z"/>
<path class="st2" d="M68,29.3L68,29.3c-0.1,0-0.3,0.1-0.4,0.2c0,0-0.1,0-0.1-0.1c0,0,0,0,0,0c0.2-0.2,0.5-0.4,0.8-0.5c0,0,0,0,0.1,0
	s0,0.1,0,0.2l-0.6,1.3v0.1c0.2-0.1,0.4-0.2,0.5-0.4c0,0,0.1,0,0.1,0.1c-0.2,0.3-0.5,0.5-0.9,0.5c0,0-0.1,0-0.1,0c0,0,0-0.1,0-0.1
	L68,29.3z M68.6,27.9c0,0.1-0.1,0.3-0.2,0.3c0,0,0,0,0,0c-0.1,0-0.2-0.1-0.2-0.1c0,0,0,0,0,0c0-0.1,0.1-0.3,0.2-0.3
	S68.6,27.8,68.6,27.9"/>
</svg>
